<svg width="506" height="199" viewBox="0 0 506 199" fill="none" xmlns="http://www.w3.org/2000/svg">
<path d="M13.76 25C13.6427 25 13.552 24.968 13.488 24.904C13.424 24.8293 13.392 24.7387 13.392 24.632V14.184C13.392 14.0667 13.424 13.976 13.488 13.912C13.552 13.8373 13.6427 13.8 13.76 13.8H14.496C14.624 13.8 14.72 13.832 14.784 13.896C14.848 13.9493 14.8853 13.992 14.896 14.024L20.208 22.184V14.184C20.208 14.0667 20.24 13.976 20.304 13.912C20.368 13.8373 20.4587 13.8 20.576 13.8H21.344C21.4613 13.8 21.552 13.8373 21.616 13.912C21.6907 13.976 21.728 14.0667 21.728 14.184V24.616C21.728 24.7227 21.6907 24.8133 21.616 24.888C21.552 24.9627 21.4667 25 21.36 25H20.592C20.4747 25 20.384 24.968 20.32 24.904C20.2667 24.84 20.2293 24.7973 20.208 24.776L14.912 16.696V24.632C14.912 24.7387 14.8747 24.8293 14.8 24.904C14.736 24.968 14.6453 25 14.528 25H13.76ZM26.6134 25.16C26.08 25.16 25.5947 25.0533 25.1574 24.84C24.72 24.6267 24.368 24.3387 24.1014 23.976C23.8347 23.6133 23.7014 23.2027 23.7014 22.744C23.7014 22.008 24 21.4213 24.5974 20.984C25.1947 20.5467 25.9734 20.2587 26.9334 20.12L29.3174 19.784V19.32C29.3174 18.808 29.168 18.408 28.8694 18.12C28.5814 17.832 28.1067 17.688 27.4454 17.688C26.9654 17.688 26.576 17.784 26.2774 17.976C25.9894 18.168 25.7867 18.4133 25.6694 18.712C25.6054 18.872 25.4934 18.952 25.3334 18.952H24.6134C24.496 18.952 24.4054 18.92 24.3414 18.856C24.288 18.7813 24.2614 18.696 24.2614 18.6C24.2614 18.44 24.32 18.2427 24.4374 18.008C24.5654 17.7733 24.7574 17.544 25.0134 17.32C25.2694 17.096 25.5947 16.9093 25.9894 16.76C26.3947 16.6 26.8854 16.52 27.4614 16.52C28.1014 16.52 28.64 16.6053 29.0774 16.776C29.5147 16.936 29.856 17.1547 30.1014 17.432C30.3574 17.7093 30.5387 18.024 30.6454 18.376C30.7627 18.728 30.8214 19.0853 30.8214 19.448V24.632C30.8214 24.7387 30.784 24.8293 30.7094 24.904C30.6454 24.968 30.56 25 30.4534 25H29.7174C29.6 25 29.5094 24.968 29.4454 24.904C29.3814 24.8293 29.3494 24.7387 29.3494 24.632V23.944C29.2107 24.136 29.024 24.328 28.7894 24.52C28.5547 24.7013 28.2614 24.856 27.9094 24.984C27.5574 25.1013 27.1254 25.16 26.6134 25.16ZM26.9494 23.96C27.3867 23.96 27.7867 23.8693 28.1494 23.688C28.512 23.496 28.7947 23.2027 28.9974 22.808C29.2107 22.4133 29.3174 21.9173 29.3174 21.32V20.872L27.4614 21.144C26.704 21.2507 26.1334 21.432 25.7494 21.688C25.3654 21.9333 25.1734 22.248 25.1734 22.632C25.1734 22.9307 25.2587 23.1813 25.4294 23.384C25.6107 23.576 25.8347 23.72 26.1014 23.816C26.3787 23.912 26.6614 23.96 26.9494 23.96ZM33.4895 25C33.3828 25 33.2922 24.968 33.2175 24.904C33.1535 24.8293 33.1215 24.7387 33.1215 24.632V17.048C33.1215 16.9413 33.1535 16.856 33.2175 16.792C33.2922 16.7173 33.3828 16.68 33.4895 16.68H34.2095C34.3162 16.68 34.4015 16.7173 34.4655 16.792C34.5402 16.856 34.5775 16.9413 34.5775 17.048V17.608C34.8228 17.2773 35.1322 17.016 35.5055 16.824C35.8788 16.6213 36.3268 16.52 36.8495 16.52C38.0548 16.5093 38.9082 17 39.4095 17.992C39.6548 17.544 40.0122 17.1867 40.4815 16.92C40.9508 16.6533 41.4842 16.52 42.0815 16.52C42.6362 16.52 43.1375 16.648 43.5855 16.904C44.0442 17.16 44.4015 17.5493 44.6575 18.072C44.9242 18.584 45.0575 19.2293 45.0575 20.008V24.632C45.0575 24.7387 45.0202 24.8293 44.9455 24.904C44.8815 24.968 44.7962 25 44.6895 25H43.9375C43.8308 25 43.7402 24.968 43.6655 24.904C43.6015 24.8293 43.5695 24.7387 43.5695 24.632V20.152C43.5695 19.5547 43.4842 19.0853 43.3135 18.744C43.1428 18.4027 42.9135 18.1627 42.6255 18.024C42.3375 17.8853 42.0228 17.816 41.6815 17.816C41.4042 17.816 41.1215 17.8853 40.8335 18.024C40.5455 18.1627 40.3055 18.4027 40.1135 18.744C39.9322 19.0853 39.8415 19.5547 39.8415 20.152V24.632C39.8415 24.7387 39.8042 24.8293 39.7295 24.904C39.6655 24.968 39.5802 25 39.4735 25H38.7215C38.6148 25 38.5242 24.968 38.4495 24.904C38.3855 24.8293 38.3535 24.7387 38.3535 24.632V20.152C38.3535 19.5547 38.2628 19.0853 38.0815 18.744C37.9002 18.4027 37.6655 18.1627 37.3775 18.024C37.0895 17.8853 36.7855 17.816 36.4655 17.816C36.1882 17.816 35.9055 17.8853 35.6175 18.024C35.3295 18.1627 35.0895 18.4027 34.8975 18.744C34.7162 19.0853 34.6255 19.5493 34.6255 20.136V24.632C34.6255 24.7387 34.5882 24.8293 34.5135 24.904C34.4495 24.968 34.3642 25 34.2575 25H33.4895ZM50.6523 25.16C49.5536 25.16 48.6789 24.824 48.0283 24.152C47.3776 23.4693 47.0203 22.5413 46.9563 21.368C46.9456 21.2293 46.9403 21.0533 46.9403 20.84C46.9403 20.616 46.9456 20.4347 46.9563 20.296C46.9989 19.5387 47.1749 18.8773 47.4843 18.312C47.7936 17.736 48.2149 17.2933 48.7483 16.984C49.2923 16.6747 49.9269 16.52 50.6523 16.52C51.4629 16.52 52.1403 16.6907 52.6843 17.032C53.2389 17.3733 53.6603 17.8587 53.9483 18.488C54.2363 19.1173 54.3802 19.8533 54.3802 20.696V20.968C54.3802 21.0853 54.3429 21.176 54.2683 21.24C54.2043 21.304 54.1189 21.336 54.0123 21.336H48.4763C48.4763 21.3467 48.4763 21.368 48.4763 21.4C48.4763 21.432 48.4763 21.4587 48.4763 21.48C48.4976 21.9173 48.5936 22.328 48.7643 22.712C48.9349 23.0853 49.1803 23.3893 49.5003 23.624C49.8203 23.8587 50.2043 23.976 50.6523 23.976C51.0363 23.976 51.3563 23.9173 51.6123 23.8C51.8683 23.6827 52.0763 23.5547 52.2363 23.416C52.3963 23.2667 52.5029 23.1547 52.5563 23.08C52.6523 22.9413 52.7269 22.8613 52.7803 22.84C52.8336 22.808 52.9189 22.792 53.0363 22.792H53.8043C53.9109 22.792 53.9963 22.824 54.0603 22.888C54.1349 22.9413 54.1669 23.0213 54.1562 23.128C54.1456 23.288 54.0603 23.4853 53.9003 23.72C53.7403 23.944 53.5109 24.168 53.2123 24.392C52.9136 24.616 52.5509 24.8027 52.1243 24.952C51.6976 25.0907 51.2069 25.16 50.6523 25.16ZM48.4763 20.232H52.8603V20.184C52.8603 19.704 52.7696 19.2773 52.5883 18.904C52.4176 18.5307 52.1669 18.2373 51.8363 18.024C51.5056 17.8 51.1109 17.688 50.6523 17.688C50.1936 17.688 49.7989 17.8 49.4683 18.024C49.1483 18.2373 48.9029 18.5307 48.7323 18.904C48.5616 19.2773 48.4763 19.704 48.4763 20.184V20.232ZM63.6233 25.16C62.8126 25.16 62.1353 25.0053 61.5913 24.696C61.0473 24.3867 60.6313 23.96 60.3433 23.416C60.0553 22.8613 59.8953 22.232 59.8633 21.528C59.8526 21.3467 59.8473 21.1173 59.8473 20.84C59.8473 20.552 59.8526 20.3227 59.8633 20.152C59.8953 19.4373 60.0553 18.808 60.3433 18.264C60.6419 17.72 61.0633 17.2933 61.6073 16.984C62.1513 16.6747 62.8233 16.52 63.6233 16.52C64.4233 16.52 65.0953 16.6747 65.6393 16.984C66.1833 17.2933 66.5993 17.72 66.8873 18.264C67.1859 18.808 67.3513 19.4373 67.3833 20.152C67.3939 20.3227 67.3993 20.552 67.3993 20.84C67.3993 21.1173 67.3939 21.3467 67.3833 21.528C67.3513 22.232 67.1913 22.8613 66.9033 23.416C66.6153 23.96 66.1993 24.3867 65.6553 24.696C65.1113 25.0053 64.4339 25.16 63.6233 25.16ZM63.6233 23.928C64.2846 23.928 64.8126 23.72 65.2073 23.304C65.6019 22.8773 65.8153 22.2587 65.8473 21.448C65.8579 21.288 65.8633 21.0853 65.8633 20.84C65.8633 20.5947 65.8579 20.392 65.8473 20.232C65.8153 19.4213 65.6019 18.808 65.2073 18.392C64.8126 17.9653 64.2846 17.752 63.6233 17.752C62.9619 17.752 62.4286 17.9653 62.0233 18.392C61.6286 18.808 61.4206 19.4213 61.3993 20.232C61.3886 20.392 61.3832 20.5947 61.3832 20.84C61.3832 21.0853 61.3886 21.288 61.3993 21.448C61.4206 22.2587 61.6286 22.8773 62.0233 23.304C62.4286 23.72 62.9619 23.928 63.6233 23.928ZM69.7708 25C69.6641 25 69.5734 24.968 69.4988 24.904C69.4348 24.8293 69.4028 24.7387 69.4028 24.632V17.064C69.4028 16.9573 69.4348 16.8667 69.4988 16.792C69.5734 16.7173 69.6641 16.68 69.7708 16.68H70.5068C70.6134 16.68 70.7041 16.7173 70.7788 16.792C70.8534 16.8667 70.8908 16.9573 70.8908 17.064V17.768C71.1041 17.4053 71.3974 17.1333 71.7708 16.952C72.1441 16.7707 72.5921 16.68 73.1148 16.68H73.7548C73.8614 16.68 73.9468 16.7173 74.0108 16.792C74.0748 16.856 74.1068 16.9413 74.1068 17.048V17.704C74.1068 17.8107 74.0748 17.896 74.0108 17.96C73.9468 18.024 73.8614 18.056 73.7548 18.056H72.7948C72.2188 18.056 71.7654 18.2267 71.4348 18.568C71.1041 18.8987 70.9388 19.352 70.9388 19.928V24.632C70.9388 24.7387 70.9014 24.8293 70.8268 24.904C70.7521 24.968 70.6614 25 70.5548 25H69.7708ZM81.6455 25C81.5388 25 81.4482 24.968 81.3735 24.904C81.3095 24.8293 81.2775 24.7387 81.2775 24.632V15.224H78.2055C78.0988 15.224 78.0082 15.192 77.9335 15.128C77.8695 15.0533 77.8375 14.9627 77.8375 14.856V14.184C77.8375 14.0667 77.8695 13.976 77.9335 13.912C78.0082 13.8373 78.0988 13.8 78.2055 13.8H85.9175C86.0348 13.8 86.1255 13.8373 86.1895 13.912C86.2642 13.976 86.3015 14.0667 86.3015 14.184V14.856C86.3015 14.9627 86.2642 15.0533 86.1895 15.128C86.1255 15.192 86.0348 15.224 85.9175 15.224H82.8615V24.632C82.8615 24.7387 82.8242 24.8293 82.7495 24.904C82.6855 24.968 82.5948 25 82.4775 25H81.6455ZM88.7384 25.16C88.205 25.16 87.7197 25.0533 87.2824 24.84C86.845 24.6267 86.493 24.3387 86.2264 23.976C85.9597 23.6133 85.8264 23.2027 85.8264 22.744C85.8264 22.008 86.125 21.4213 86.7224 20.984C87.3197 20.5467 88.0984 20.2587 89.0584 20.12L91.4424 19.784V19.32C91.4424 18.808 91.293 18.408 90.9944 18.12C90.7064 17.832 90.2317 17.688 89.5704 17.688C89.0904 17.688 88.701 17.784 88.4024 17.976C88.1144 18.168 87.9117 18.4133 87.7944 18.712C87.7304 18.872 87.6184 18.952 87.4584 18.952H86.7384C86.621 18.952 86.5304 18.92 86.4664 18.856C86.413 18.7813 86.3864 18.696 86.3864 18.6C86.3864 18.44 86.445 18.2427 86.5624 18.008C86.6904 17.7733 86.8824 17.544 87.1384 17.32C87.3944 17.096 87.7197 16.9093 88.1144 16.76C88.5197 16.6 89.0104 16.52 89.5864 16.52C90.2264 16.52 90.765 16.6053 91.2024 16.776C91.6397 16.936 91.981 17.1547 92.2264 17.432C92.4824 17.7093 92.6637 18.024 92.7704 18.376C92.8877 18.728 92.9464 19.0853 92.9464 19.448V24.632C92.9464 24.7387 92.909 24.8293 92.8344 24.904C92.7704 24.968 92.685 25 92.5784 25H91.8424C91.725 25 91.6344 24.968 91.5704 24.904C91.5064 24.8293 91.4744 24.7387 91.4744 24.632V23.944C91.3357 24.136 91.149 24.328 90.9144 24.52C90.6797 24.7013 90.3864 24.856 90.0344 24.984C89.6824 25.1013 89.2504 25.16 88.7384 25.16ZM89.0744 23.96C89.5117 23.96 89.9117 23.8693 90.2744 23.688C90.637 23.496 90.9197 23.2027 91.1224 22.808C91.3357 22.4133 91.4424 21.9173 91.4424 21.32V20.872L89.5864 21.144C88.829 21.2507 88.2584 21.432 87.8744 21.688C87.4904 21.9333 87.2984 22.248 87.2984 22.632C87.2984 22.9307 87.3837 23.1813 87.5544 23.384C87.7357 23.576 87.9597 23.72 88.2264 23.816C88.5037 23.912 88.7864 23.96 89.0744 23.96ZM98.6545 28.52C97.9292 28.52 97.3318 28.424 96.8625 28.232C96.4038 28.04 96.0412 27.8053 95.7745 27.528C95.5185 27.2613 95.3318 26.9893 95.2145 26.712C95.1078 26.4453 95.0492 26.232 95.0385 26.072C95.0278 25.9653 95.0598 25.8747 95.1345 25.8C95.2198 25.7253 95.3105 25.688 95.4065 25.688H96.1745C96.2705 25.688 96.3505 25.7093 96.4145 25.752C96.4785 25.7947 96.5318 25.8853 96.5745 26.024C96.6385 26.184 96.7345 26.36 96.8625 26.552C96.9905 26.7547 97.1878 26.9253 97.4545 27.064C97.7212 27.2133 98.0945 27.288 98.5745 27.288C99.0758 27.288 99.4972 27.2187 99.8385 27.08C100.18 26.952 100.436 26.7173 100.607 26.376C100.788 26.0453 100.879 25.5867 100.879 25V23.912C100.623 24.2427 100.287 24.52 99.8705 24.744C99.4545 24.9573 98.9318 25.064 98.3025 25.064C97.7052 25.064 97.1932 24.9627 96.7665 24.76C96.3398 24.5467 95.9878 24.264 95.7105 23.912C95.4438 23.5493 95.2412 23.1387 95.1025 22.68C94.9745 22.2213 94.8998 21.7413 94.8785 21.24C94.8678 20.9413 94.8678 20.648 94.8785 20.36C94.8998 19.8587 94.9745 19.3787 95.1025 18.92C95.2412 18.4613 95.4438 18.0507 95.7105 17.688C95.9878 17.3253 96.3398 17.0427 96.7665 16.84C97.1932 16.6267 97.7052 16.52 98.3025 16.52C98.9425 16.52 99.4705 16.6427 99.8865 16.888C100.313 17.1227 100.66 17.4107 100.927 17.752V17.064C100.927 16.9573 100.959 16.8667 101.023 16.792C101.097 16.7173 101.188 16.68 101.295 16.68H102.031C102.137 16.68 102.228 16.7173 102.303 16.792C102.377 16.8667 102.415 16.9573 102.415 17.064V24.824C102.415 25.5387 102.292 26.1733 102.047 26.728C101.812 27.2827 101.417 27.72 100.863 28.04C100.319 28.36 99.5825 28.52 98.6545 28.52ZM98.6225 23.784C99.1558 23.784 99.5825 23.6613 99.9025 23.416C100.233 23.1707 100.473 22.8613 100.623 22.488C100.783 22.1147 100.868 21.736 100.879 21.352C100.889 21.2027 100.895 21.0213 100.895 20.808C100.895 20.584 100.889 20.3973 100.879 20.248C100.868 19.864 100.783 19.4853 100.623 19.112C100.473 18.7387 100.233 18.4293 99.9025 18.184C99.5825 17.9387 99.1558 17.816 98.6225 17.816C98.0892 17.816 97.6625 17.9387 97.3425 18.184C97.0225 18.4187 96.7932 18.7333 96.6545 19.128C96.5158 19.512 96.4358 19.928 96.4145 20.376C96.4038 20.6533 96.4038 20.936 96.4145 21.224C96.4358 21.672 96.5158 22.0933 96.6545 22.488C96.7932 22.872 97.0225 23.1867 97.3425 23.432C97.6625 23.6667 98.0892 23.784 98.6225 23.784Z" fill="white"/>
<path fill-rule="evenodd" clip-rule="evenodd" d="M141.308 17.0581C141.552 16.814 141.948 16.814 142.192 17.0581L148 22.8661L153.808 17.0581C154.052 16.814 154.448 16.814 154.692 17.0581C154.936 17.3021 154.936 17.6979 154.692 17.9419L148.442 24.1919C148.198 24.436 147.802 24.436 147.558 24.1919L141.308 17.9419C141.064 17.6979 141.064 17.3021 141.308 17.0581Z" fill="#5BD424"/>
<path d="M0.5 10C0.5 4.7533 4.7533 0.5 10 0.5H169.5V39.5H10C4.75329 39.5 0.5 35.2467 0.5 30V10Z" stroke="#46A11B"/>
<path d="M185.992 25.16C185.064 25.16 184.285 25.0213 183.656 24.744C183.027 24.456 182.541 24.088 182.2 23.64C181.869 23.1813 181.693 22.696 181.672 22.184C181.672 22.0987 181.704 22.024 181.768 21.96C181.843 21.8853 181.928 21.848 182.024 21.848H182.84C182.968 21.848 183.064 21.88 183.128 21.944C183.192 22.008 183.235 22.0827 183.256 22.168C183.309 22.424 183.437 22.68 183.64 22.936C183.853 23.1813 184.147 23.3893 184.52 23.56C184.904 23.72 185.395 23.8 185.992 23.8C186.909 23.8 187.581 23.64 188.008 23.32C188.445 22.9893 188.664 22.552 188.664 22.008C188.664 21.6347 188.547 21.336 188.312 21.112C188.088 20.8773 187.741 20.6693 187.272 20.488C186.803 20.3067 186.195 20.1093 185.448 19.896C184.669 19.672 184.024 19.4267 183.512 19.16C183 18.8933 182.616 18.5627 182.36 18.168C182.115 17.7733 181.992 17.272 181.992 16.664C181.992 16.088 182.147 15.576 182.456 15.128C182.765 14.6693 183.208 14.3067 183.784 14.04C184.371 13.7733 185.08 13.64 185.912 13.64C186.573 13.64 187.149 13.7307 187.64 13.912C188.141 14.0827 188.557 14.3173 188.888 14.616C189.219 14.904 189.469 15.2187 189.64 15.56C189.811 15.8907 189.901 16.216 189.912 16.536C189.912 16.6107 189.885 16.6853 189.832 16.76C189.779 16.824 189.693 16.856 189.576 16.856H188.728C188.653 16.856 188.573 16.8347 188.488 16.792C188.413 16.7493 188.355 16.6693 188.312 16.552C188.248 16.1147 188.003 15.7467 187.576 15.448C187.149 15.1493 186.595 15 185.912 15C185.219 15 184.653 15.1333 184.216 15.4C183.789 15.6667 183.576 16.0827 183.576 16.648C183.576 17.0107 183.677 17.3147 183.88 17.56C184.083 17.7947 184.403 18.0027 184.84 18.184C185.277 18.3653 185.848 18.5573 186.552 18.76C187.405 18.9947 188.104 19.2453 188.648 19.512C189.192 19.768 189.592 20.0933 189.848 20.488C190.115 20.872 190.248 21.368 190.248 21.976C190.248 22.648 190.072 23.224 189.72 23.704C189.368 24.1733 188.872 24.536 188.232 24.792C187.603 25.0373 186.856 25.16 185.992 25.16ZM195.449 25.16C194.35 25.16 193.476 24.824 192.825 24.152C192.174 23.4693 191.817 22.5413 191.753 21.368C191.742 21.2293 191.737 21.0533 191.737 20.84C191.737 20.616 191.742 20.4347 191.753 20.296C191.796 19.5387 191.972 18.8773 192.281 18.312C192.59 17.736 193.012 17.2933 193.545 16.984C194.089 16.6747 194.724 16.52 195.449 16.52C196.26 16.52 196.937 16.6907 197.481 17.032C198.036 17.3733 198.457 17.8587 198.745 18.488C199.033 19.1173 199.177 19.8533 199.177 20.696V20.968C199.177 21.0853 199.14 21.176 199.065 21.24C199.001 21.304 198.916 21.336 198.809 21.336H193.273C193.273 21.3467 193.273 21.368 193.273 21.4C193.273 21.432 193.273 21.4587 193.273 21.48C193.294 21.9173 193.39 22.328 193.561 22.712C193.732 23.0853 193.977 23.3893 194.297 23.624C194.617 23.8587 195.001 23.976 195.449 23.976C195.833 23.976 196.153 23.9173 196.409 23.8C196.665 23.6827 196.873 23.5547 197.033 23.416C197.193 23.2667 197.3 23.1547 197.353 23.08C197.449 22.9413 197.524 22.8613 197.577 22.84C197.63 22.808 197.716 22.792 197.833 22.792H198.601C198.708 22.792 198.793 22.824 198.857 22.888C198.932 22.9413 198.964 23.0213 198.953 23.128C198.942 23.288 198.857 23.4853 198.697 23.72C198.537 23.944 198.308 24.168 198.009 24.392C197.71 24.616 197.348 24.8027 196.921 24.952C196.494 25.0907 196.004 25.16 195.449 25.16ZM193.273 20.232H197.657V20.184C197.657 19.704 197.566 19.2773 197.385 18.904C197.214 18.5307 196.964 18.2373 196.633 18.024C196.302 17.8 195.908 17.688 195.449 17.688C194.99 17.688 194.596 17.8 194.265 18.024C193.945 18.2373 193.7 18.5307 193.529 18.904C193.358 19.2773 193.273 19.704 193.273 20.184V20.232ZM203.41 25.16C202.877 25.16 202.392 25.0533 201.954 24.84C201.517 24.6267 201.165 24.3387 200.898 23.976C200.632 23.6133 200.498 23.2027 200.498 22.744C200.498 22.008 200.797 21.4213 201.394 20.984C201.992 20.5467 202.77 20.2587 203.73 20.12L206.114 19.784V19.32C206.114 18.808 205.965 18.408 205.666 18.12C205.378 17.832 204.904 17.688 204.242 17.688C203.762 17.688 203.373 17.784 203.074 17.976C202.786 18.168 202.584 18.4133 202.466 18.712C202.402 18.872 202.29 18.952 202.13 18.952H201.41C201.293 18.952 201.202 18.92 201.138 18.856C201.085 18.7813 201.058 18.696 201.058 18.6C201.058 18.44 201.117 18.2427 201.234 18.008C201.362 17.7733 201.554 17.544 201.81 17.32C202.066 17.096 202.392 16.9093 202.786 16.76C203.192 16.6 203.682 16.52 204.258 16.52C204.898 16.52 205.437 16.6053 205.874 16.776C206.312 16.936 206.653 17.1547 206.898 17.432C207.154 17.7093 207.336 18.024 207.442 18.376C207.56 18.728 207.618 19.0853 207.618 19.448V24.632C207.618 24.7387 207.581 24.8293 207.506 24.904C207.442 24.968 207.357 25 207.25 25H206.514C206.397 25 206.306 24.968 206.242 24.904C206.178 24.8293 206.146 24.7387 206.146 24.632V23.944C206.008 24.136 205.821 24.328 205.586 24.52C205.352 24.7013 205.058 24.856 204.706 24.984C204.354 25.1013 203.922 25.16 203.41 25.16ZM203.746 23.96C204.184 23.96 204.584 23.8693 204.946 23.688C205.309 23.496 205.592 23.2027 205.794 22.808C206.008 22.4133 206.114 21.9173 206.114 21.32V20.872L204.258 21.144C203.501 21.2507 202.93 21.432 202.546 21.688C202.162 21.9333 201.97 22.248 201.97 22.632C201.97 22.9307 202.056 23.1813 202.226 23.384C202.408 23.576 202.632 23.72 202.898 23.816C203.176 23.912 203.458 23.96 203.746 23.96ZM210.286 25C210.18 25 210.089 24.968 210.014 24.904C209.95 24.8293 209.918 24.7387 209.918 24.632V17.064C209.918 16.9573 209.95 16.8667 210.014 16.792C210.089 16.7173 210.18 16.68 210.286 16.68H211.022C211.129 16.68 211.22 16.7173 211.294 16.792C211.369 16.8667 211.406 16.9573 211.406 17.064V17.768C211.62 17.4053 211.913 17.1333 212.286 16.952C212.66 16.7707 213.108 16.68 213.63 16.68H214.27C214.377 16.68 214.462 16.7173 214.526 16.792C214.59 16.856 214.622 16.9413 214.622 17.048V17.704C214.622 17.8107 214.59 17.896 214.526 17.96C214.462 18.024 214.377 18.056 214.27 18.056H213.31C212.734 18.056 212.281 18.2267 211.95 18.568C211.62 18.8987 211.454 19.352 211.454 19.928V24.632C211.454 24.7387 211.417 24.8293 211.342 24.904C211.268 24.968 211.177 25 211.07 25H210.286ZM219.2 25.16C218.443 25.16 217.787 25.016 217.232 24.728C216.688 24.4293 216.267 24.008 215.968 23.464C215.67 22.9093 215.51 22.248 215.488 21.48C215.478 21.32 215.472 21.1067 215.472 20.84C215.472 20.5733 215.478 20.36 215.488 20.2C215.51 19.432 215.67 18.776 215.968 18.232C216.267 17.6773 216.688 17.256 217.232 16.968C217.787 16.6693 218.443 16.52 219.2 16.52C219.819 16.52 220.347 16.6053 220.784 16.776C221.232 16.9467 221.6 17.1653 221.888 17.432C222.176 17.6987 222.39 17.9867 222.528 18.296C222.678 18.6053 222.758 18.8987 222.768 19.176C222.779 19.2827 222.747 19.368 222.672 19.432C222.598 19.496 222.507 19.528 222.4 19.528H221.632C221.526 19.528 221.446 19.5067 221.392 19.464C221.339 19.4107 221.286 19.3253 221.232 19.208C221.04 18.6853 220.779 18.3173 220.448 18.104C220.118 17.8907 219.707 17.784 219.216 17.784C218.576 17.784 218.054 17.9813 217.648 18.376C217.254 18.7707 217.04 19.4053 217.008 20.28C216.998 20.664 216.998 21.0373 217.008 21.4C217.04 22.2853 217.254 22.9253 217.648 23.32C218.054 23.704 218.576 23.896 219.216 23.896C219.707 23.896 220.118 23.7893 220.448 23.576C220.779 23.3627 221.04 22.9947 221.232 22.472C221.286 22.3547 221.339 22.2747 221.392 22.232C221.446 22.1787 221.526 22.152 221.632 22.152H222.4C222.507 22.152 222.598 22.184 222.672 22.248C222.747 22.312 222.779 22.3973 222.768 22.504C222.758 22.728 222.71 22.9573 222.624 23.192C222.539 23.4267 222.4 23.6667 222.208 23.912C222.027 24.1467 221.798 24.36 221.52 24.552C221.243 24.7333 220.907 24.8827 220.512 25C220.128 25.1067 219.691 25.16 219.2 25.16ZM225.052 25C224.946 25 224.855 24.968 224.78 24.904C224.716 24.8293 224.684 24.7387 224.684 24.632V14.008C224.684 13.9013 224.716 13.816 224.78 13.752C224.855 13.6773 224.946 13.64 225.052 13.64H225.852C225.97 13.64 226.06 13.6773 226.124 13.752C226.188 13.816 226.22 13.9013 226.22 14.008V17.736C226.508 17.3733 226.86 17.08 227.276 16.856C227.692 16.632 228.22 16.52 228.86 16.52C229.554 16.52 230.14 16.6747 230.62 16.984C231.111 17.2827 231.479 17.704 231.724 18.248C231.98 18.7813 232.108 19.4053 232.108 20.12V24.632C232.108 24.7387 232.076 24.8293 232.012 24.904C231.948 24.968 231.858 25 231.74 25H230.94C230.834 25 230.743 24.968 230.668 24.904C230.604 24.8293 230.572 24.7387 230.572 24.632V20.2C230.572 19.4533 230.391 18.872 230.028 18.456C229.666 18.0293 229.132 17.816 228.428 17.816C227.767 17.816 227.234 18.0293 226.828 18.456C226.423 18.872 226.22 19.4533 226.22 20.2V24.632C226.22 24.7387 226.188 24.8293 226.124 24.904C226.06 24.968 225.97 25 225.852 25H225.052Z" fill="#8F9094"/>
<path fill-rule="evenodd" clip-rule="evenodd" d="M485.78 21.7804C486.024 21.5364 486.42 21.5364 486.664 21.7804L491.108 26.2249C491.352 26.469 491.352 26.8647 491.108 27.1088C490.864 27.3528 490.468 27.3528 490.224 27.1088L485.78 22.6643C485.536 22.4203 485.536 22.0245 485.78 21.7804Z" fill="#5BD424"/>
<path fill-rule="evenodd" clip-rule="evenodd" d="M482.518 13.9585C480 13.9585 477.958 16.0002 477.958 18.5187C477.958 21.0372 480 23.0789 482.518 23.0789C485.037 23.0789 487.078 21.0372 487.078 18.5187C487.078 16.0002 485.037 13.9585 482.518 13.9585ZM476.708 18.5187C476.708 15.3098 479.309 12.7085 482.518 12.7085C485.727 12.7085 488.328 15.3098 488.328 18.5187C488.328 21.7276 485.727 24.3289 482.518 24.3289C479.309 24.3289 476.708 21.7276 476.708 18.5187Z" fill="#5BD424"/>
<path d="M169 -1H496C502.075 -1 507 3.92487 507 10H505C505 5.02944 500.971 1 496 1H169V-1ZM507 30C507 36.0751 502.075 41 496 41H169V39H496C500.971 39 505 34.9706 505 30H507ZM169 40V0V40ZM496 -1C502.075 -1 507 3.92487 507 10V30C507 36.0751 502.075 41 496 41V39C500.971 39 505 34.9706 505 30V10C505 5.02944 500.971 1 496 1V-1Z" fill="#46A11B" mask="url(#path-5-inside-1_2159_4492)"/>
<rect y="48" width="170" height="91" rx="5" fill="#2F3239"/>
<path d="M17.54 73C17.4373 73 17.358 72.972 17.302 72.916C17.246 72.8507 17.218 72.7713 17.218 72.678V63.536C17.218 63.4333 17.246 63.354 17.302 63.298C17.358 63.2327 17.4373 63.2 17.54 63.2H18.184C18.296 63.2 18.38 63.228 18.436 63.284C18.492 63.3307 18.5247 63.368 18.534 63.396L23.182 70.536V63.536C23.182 63.4333 23.21 63.354 23.266 63.298C23.322 63.2327 23.4013 63.2 23.504 63.2H24.176C24.2787 63.2 24.358 63.2327 24.414 63.298C24.4793 63.354 24.512 63.4333 24.512 63.536V72.664C24.512 72.7573 24.4793 72.8367 24.414 72.902C24.358 72.9673 24.2833 73 24.19 73H23.518C23.4153 73 23.336 72.972 23.28 72.916C23.2333 72.86 23.2007 72.8227 23.182 72.804L18.548 65.734V72.678C18.548 72.7713 18.5153 72.8507 18.45 72.916C18.394 72.972 18.3147 73 18.212 73H17.54ZM28.7867 73.14C28.32 73.14 27.8954 73.0467 27.5127 72.86C27.13 72.6733 26.822 72.4213 26.5887 72.104C26.3554 71.7867 26.2387 71.4273 26.2387 71.026C26.2387 70.382 26.5 69.8687 27.0227 69.486C27.5454 69.1033 28.2267 68.8513 29.0667 68.73L31.1527 68.436V68.03C31.1527 67.582 31.022 67.232 30.7607 66.98C30.5087 66.728 30.0934 66.602 29.5147 66.602C29.0947 66.602 28.754 66.686 28.4927 66.854C28.2407 67.022 28.0634 67.2367 27.9607 67.498C27.9047 67.638 27.8067 67.708 27.6667 67.708H27.0367C26.934 67.708 26.8547 67.68 26.7987 67.624C26.752 67.5587 26.7287 67.484 26.7287 67.4C26.7287 67.26 26.78 67.0873 26.8827 66.882C26.9947 66.6767 27.1627 66.476 27.3867 66.28C27.6107 66.084 27.8954 65.9207 28.2407 65.79C28.5954 65.65 29.0247 65.58 29.5287 65.58C30.0887 65.58 30.56 65.6547 30.9427 65.804C31.3254 65.944 31.624 66.1353 31.8387 66.378C32.0627 66.6207 32.2214 66.896 32.3147 67.204C32.4174 67.512 32.4687 67.8247 32.4687 68.142V72.678C32.4687 72.7713 32.436 72.8507 32.3707 72.916C32.3147 72.972 32.24 73 32.1467 73H31.5027C31.4 73 31.3207 72.972 31.2647 72.916C31.2087 72.8507 31.1807 72.7713 31.1807 72.678V72.076C31.0594 72.244 30.896 72.412 30.6907 72.58C30.4854 72.7387 30.2287 72.874 29.9207 72.986C29.6127 73.0887 29.2347 73.14 28.7867 73.14ZM29.0807 72.09C29.4634 72.09 29.8134 72.0107 30.1307 71.852C30.448 71.684 30.6954 71.4273 30.8727 71.082C31.0594 70.7367 31.1527 70.3027 31.1527 69.78V69.388L29.5287 69.626C28.866 69.7193 28.3667 69.878 28.0307 70.102C27.6947 70.3167 27.5267 70.592 27.5267 70.928C27.5267 71.1893 27.6014 71.4087 27.7507 71.586C27.9094 71.754 28.1054 71.88 28.3387 71.964C28.5814 72.048 28.8287 72.09 29.0807 72.09ZM34.8033 73C34.71 73 34.6306 72.972 34.5653 72.916C34.5093 72.8507 34.4813 72.7713 34.4813 72.678V66.042C34.4813 65.9487 34.5093 65.874 34.5653 65.818C34.6306 65.7527 34.71 65.72 34.8033 65.72H35.4333C35.5266 65.72 35.6013 65.7527 35.6573 65.818C35.7226 65.874 35.7553 65.9487 35.7553 66.042V66.532C35.97 66.2427 36.2406 66.014 36.5673 65.846C36.894 65.6687 37.286 65.58 37.7433 65.58C38.798 65.5707 39.5446 66 39.9833 66.868C40.198 66.476 40.5106 66.1633 40.9213 65.93C41.332 65.6967 41.7986 65.58 42.3213 65.58C42.8066 65.58 43.2453 65.692 43.6373 65.916C44.0386 66.14 44.3513 66.4807 44.5753 66.938C44.8086 67.386 44.9253 67.9507 44.9253 68.632V72.678C44.9253 72.7713 44.8926 72.8507 44.8273 72.916C44.7713 72.972 44.6966 73 44.6033 73H43.9453C43.852 73 43.7726 72.972 43.7073 72.916C43.6513 72.8507 43.6233 72.7713 43.6233 72.678V68.758C43.6233 68.2353 43.5486 67.8247 43.3993 67.526C43.25 67.2273 43.0493 67.0173 42.7973 66.896C42.5453 66.7747 42.27 66.714 41.9713 66.714C41.7286 66.714 41.4813 66.7747 41.2293 66.896C40.9773 67.0173 40.7673 67.2273 40.5993 67.526C40.4406 67.8247 40.3613 68.2353 40.3613 68.758V72.678C40.3613 72.7713 40.3286 72.8507 40.2633 72.916C40.2073 72.972 40.1326 73 40.0393 73H39.3813C39.288 73 39.2086 72.972 39.1433 72.916C39.0873 72.8507 39.0593 72.7713 39.0593 72.678V68.758C39.0593 68.2353 38.98 67.8247 38.8213 67.526C38.6626 67.2273 38.4573 67.0173 38.2053 66.896C37.9533 66.7747 37.6873 66.714 37.4073 66.714C37.1646 66.714 36.9173 66.7747 36.6653 66.896C36.4133 67.0173 36.2033 67.2273 36.0353 67.526C35.8766 67.8247 35.7973 68.2307 35.7973 68.744V72.678C35.7973 72.7713 35.7646 72.8507 35.6993 72.916C35.6433 72.972 35.5686 73 35.4753 73H34.8033ZM49.8207 73.14C48.8594 73.14 48.0941 72.846 47.5247 72.258C46.9554 71.6607 46.6427 70.8487 46.5867 69.822C46.5774 69.7007 46.5727 69.5467 46.5727 69.36C46.5727 69.164 46.5774 69.0053 46.5867 68.884C46.6241 68.2213 46.7781 67.6427 47.0487 67.148C47.3194 66.644 47.6881 66.2567 48.1547 65.986C48.6307 65.7153 49.1861 65.58 49.8207 65.58C50.5301 65.58 51.1227 65.7293 51.5987 66.028C52.0841 66.3267 52.4527 66.7513 52.7047 67.302C52.9567 67.8527 53.0827 68.4967 53.0827 69.234V69.472C53.0827 69.5747 53.0501 69.654 52.9847 69.71C52.9287 69.766 52.8541 69.794 52.7607 69.794H47.9167C47.9167 69.8033 47.9167 69.822 47.9167 69.85C47.9167 69.878 47.9167 69.9013 47.9167 69.92C47.9354 70.3027 48.0194 70.662 48.1687 70.998C48.3181 71.3247 48.5327 71.5907 48.8127 71.796C49.0927 72.0013 49.4287 72.104 49.8207 72.104C50.1567 72.104 50.4367 72.0527 50.6607 71.95C50.8847 71.8473 51.0667 71.7353 51.2067 71.614C51.3467 71.4833 51.4401 71.3853 51.4867 71.32C51.5707 71.1987 51.6361 71.1287 51.6827 71.11C51.7294 71.082 51.8041 71.068 51.9067 71.068H52.5787C52.6721 71.068 52.7467 71.096 52.8027 71.152C52.8681 71.1987 52.8961 71.2687 52.8867 71.362C52.8774 71.502 52.8027 71.6747 52.6627 71.88C52.5227 72.076 52.3221 72.272 52.0607 72.468C51.7994 72.664 51.4821 72.8273 51.1087 72.958C50.7354 73.0793 50.3061 73.14 49.8207 73.14ZM47.9167 68.828H51.7527V68.786C51.7527 68.366 51.6734 67.9927 51.5147 67.666C51.3654 67.3393 51.1461 67.0827 50.8567 66.896C50.5674 66.7 50.2221 66.602 49.8207 66.602C49.4194 66.602 49.0741 66.7 48.7847 66.896C48.5047 67.0827 48.2901 67.3393 48.1407 67.666C47.9914 67.9927 47.9167 68.366 47.9167 68.786V68.828ZM61.1703 73.14C60.461 73.14 59.8683 73.0047 59.3923 72.734C58.9163 72.4633 58.5523 72.09 58.3003 71.614C58.0483 71.1287 57.9083 70.578 57.8803 69.962C57.871 69.8033 57.8663 69.6027 57.8663 69.36C57.8663 69.108 57.871 68.9073 57.8803 68.758C57.9083 68.1327 58.0483 67.582 58.3003 67.106C58.5617 66.63 58.9303 66.2567 59.4063 65.986C59.8823 65.7153 60.4703 65.58 61.1703 65.58C61.8703 65.58 62.4583 65.7153 62.9343 65.986C63.4103 66.2567 63.7743 66.63 64.0263 67.106C64.2877 67.582 64.4323 68.1327 64.4603 68.758C64.4697 68.9073 64.4743 69.108 64.4743 69.36C64.4743 69.6027 64.4697 69.8033 64.4603 69.962C64.4323 70.578 64.2923 71.1287 64.0403 71.614C63.7883 72.09 63.4243 72.4633 62.9483 72.734C62.4723 73.0047 61.8797 73.14 61.1703 73.14ZM61.1703 72.062C61.749 72.062 62.211 71.88 62.5563 71.516C62.9017 71.1427 63.0883 70.6013 63.1163 69.892C63.1257 69.752 63.1303 69.5747 63.1303 69.36C63.1303 69.1453 63.1257 68.968 63.1163 68.828C63.0883 68.1187 62.9017 67.582 62.5563 67.218C62.211 66.8447 61.749 66.658 61.1703 66.658C60.5917 66.658 60.125 66.8447 59.7703 67.218C59.425 67.582 59.243 68.1187 59.2243 68.828C59.215 68.968 59.2103 69.1453 59.2103 69.36C59.2103 69.5747 59.215 69.752 59.2243 69.892C59.243 70.6013 59.425 71.1427 59.7703 71.516C60.125 71.88 60.5917 72.062 61.1703 72.062ZM66.5494 73C66.4561 73 66.3767 72.972 66.3114 72.916C66.2554 72.8507 66.2274 72.7713 66.2274 72.678V66.056C66.2274 65.9627 66.2554 65.8833 66.3114 65.818C66.3767 65.7527 66.4561 65.72 66.5494 65.72H67.1934C67.2867 65.72 67.3661 65.7527 67.4314 65.818C67.4967 65.8833 67.5294 65.9627 67.5294 66.056V66.672C67.7161 66.3547 67.9727 66.1167 68.2994 65.958C68.6261 65.7993 69.0181 65.72 69.4754 65.72H70.0354C70.1287 65.72 70.2034 65.7527 70.2594 65.818C70.3154 65.874 70.3434 65.9487 70.3434 66.042V66.616C70.3434 66.7093 70.3154 66.784 70.2594 66.84C70.2034 66.896 70.1287 66.924 70.0354 66.924H69.1954C68.6914 66.924 68.2947 67.0733 68.0054 67.372C67.7161 67.6613 67.5714 68.058 67.5714 68.562V72.678C67.5714 72.7713 67.5387 72.8507 67.4734 72.916C67.4081 72.972 67.3287 73 67.2354 73H66.5494ZM76.9398 73C76.8465 73 76.7671 72.972 76.7018 72.916C76.6458 72.8507 76.6178 72.7713 76.6178 72.678V64.446H73.9298C73.8365 64.446 73.7571 64.418 73.6918 64.362C73.6358 64.2967 73.6078 64.2173 73.6078 64.124V63.536C73.6078 63.4333 73.6358 63.354 73.6918 63.298C73.7571 63.2327 73.8365 63.2 73.9298 63.2H80.6778C80.7805 63.2 80.8598 63.2327 80.9158 63.298C80.9811 63.354 81.0138 63.4333 81.0138 63.536V64.124C81.0138 64.2173 80.9811 64.2967 80.9158 64.362C80.8598 64.418 80.7805 64.446 80.6778 64.446H78.0038V72.678C78.0038 72.7713 77.9711 72.8507 77.9058 72.916C77.8498 72.972 77.7705 73 77.6678 73H76.9398ZM83.1461 73.14C82.6794 73.14 82.2547 73.0467 81.8721 72.86C81.4894 72.6733 81.1814 72.4213 80.9481 72.104C80.7147 71.7867 80.5981 71.4273 80.5981 71.026C80.5981 70.382 80.8594 69.8687 81.3821 69.486C81.9047 69.1033 82.5861 68.8513 83.4261 68.73L85.5121 68.436V68.03C85.5121 67.582 85.3814 67.232 85.1201 66.98C84.8681 66.728 84.4527 66.602 83.8741 66.602C83.4541 66.602 83.1134 66.686 82.8521 66.854C82.6001 67.022 82.4227 67.2367 82.3201 67.498C82.2641 67.638 82.1661 67.708 82.0261 67.708H81.3961C81.2934 67.708 81.2141 67.68 81.1581 67.624C81.1114 67.5587 81.0881 67.484 81.0881 67.4C81.0881 67.26 81.1394 67.0873 81.2421 66.882C81.3541 66.6767 81.5221 66.476 81.7461 66.28C81.9701 66.084 82.2547 65.9207 82.6001 65.79C82.9547 65.65 83.3841 65.58 83.8881 65.58C84.4481 65.58 84.9194 65.6547 85.3021 65.804C85.6847 65.944 85.9834 66.1353 86.1981 66.378C86.4221 66.6207 86.5807 66.896 86.6741 67.204C86.7767 67.512 86.8281 67.8247 86.8281 68.142V72.678C86.8281 72.7713 86.7954 72.8507 86.7301 72.916C86.6741 72.972 86.5994 73 86.5061 73H85.8621C85.7594 73 85.6801 72.972 85.6241 72.916C85.5681 72.8507 85.5401 72.7713 85.5401 72.678V72.076C85.4187 72.244 85.2554 72.412 85.0501 72.58C84.8447 72.7387 84.5881 72.874 84.2801 72.986C83.9721 73.0887 83.5941 73.14 83.1461 73.14ZM83.4401 72.09C83.8227 72.09 84.1727 72.0107 84.4901 71.852C84.8074 71.684 85.0547 71.4273 85.2321 71.082C85.4187 70.7367 85.5121 70.3027 85.5121 69.78V69.388L83.8881 69.626C83.2254 69.7193 82.7261 69.878 82.3901 70.102C82.0541 70.3167 81.8861 70.592 81.8861 70.928C81.8861 71.1893 81.9607 71.4087 82.1101 71.586C82.2687 71.754 82.4647 71.88 82.6981 71.964C82.9407 72.048 83.1881 72.09 83.4401 72.09ZM91.8227 76.08C91.188 76.08 90.6654 75.996 90.2547 75.828C89.8534 75.66 89.536 75.4547 89.3027 75.212C89.0787 74.9787 88.9154 74.7407 88.8127 74.498C88.7194 74.2647 88.668 74.078 88.6587 73.938C88.6494 73.8447 88.6774 73.7653 88.7427 73.7C88.8174 73.6347 88.8967 73.602 88.9807 73.602H89.6527C89.7367 73.602 89.8067 73.6207 89.8627 73.658C89.9187 73.6953 89.9654 73.7747 90.0027 73.896C90.0587 74.036 90.1427 74.19 90.2547 74.358C90.3667 74.5353 90.5394 74.6847 90.7727 74.806C91.006 74.9367 91.3327 75.002 91.7527 75.002C92.1914 75.002 92.56 74.9413 92.8587 74.82C93.1574 74.708 93.3814 74.5027 93.5307 74.204C93.6894 73.9147 93.7687 73.5133 93.7687 73V72.048C93.5447 72.3373 93.2507 72.58 92.8867 72.776C92.5227 72.9627 92.0654 73.056 91.5147 73.056C90.992 73.056 90.544 72.9673 90.1707 72.79C89.7974 72.6033 89.4894 72.356 89.2467 72.048C89.0134 71.7307 88.836 71.3713 88.7147 70.97C88.6027 70.5687 88.5374 70.1487 88.5187 69.71C88.5094 69.4487 88.5094 69.192 88.5187 68.94C88.5374 68.5013 88.6027 68.0813 88.7147 67.68C88.836 67.2787 89.0134 66.9193 89.2467 66.602C89.4894 66.2847 89.7974 66.0373 90.1707 65.86C90.544 65.6733 90.992 65.58 91.5147 65.58C92.0747 65.58 92.5367 65.6873 92.9007 65.902C93.274 66.1073 93.5774 66.3593 93.8107 66.658V66.056C93.8107 65.9627 93.8387 65.8833 93.8947 65.818C93.96 65.7527 94.0394 65.72 94.1327 65.72H94.7767C94.87 65.72 94.9494 65.7527 95.0147 65.818C95.08 65.8833 95.1127 65.9627 95.1127 66.056V72.846C95.1127 73.4713 95.0054 74.0267 94.7907 74.512C94.5854 74.9973 94.24 75.38 93.7547 75.66C93.2787 75.94 92.6347 76.08 91.8227 76.08ZM91.7947 71.936C92.2614 71.936 92.6347 71.8287 92.9147 71.614C93.204 71.3993 93.414 71.1287 93.5447 70.802C93.6847 70.4753 93.7594 70.144 93.7687 69.808C93.778 69.6773 93.7827 69.5187 93.7827 69.332C93.7827 69.136 93.778 68.9727 93.7687 68.842C93.7594 68.506 93.6847 68.1747 93.5447 67.848C93.414 67.5213 93.204 67.2507 92.9147 67.036C92.6347 66.8213 92.2614 66.714 91.7947 66.714C91.328 66.714 90.9547 66.8213 90.6747 67.036C90.3947 67.2413 90.194 67.5167 90.0727 67.862C89.9514 68.198 89.8814 68.562 89.8627 68.954C89.8534 69.1967 89.8534 69.444 89.8627 69.696C89.8814 70.088 89.9514 70.4567 90.0727 70.802C90.194 71.138 90.3947 71.4133 90.6747 71.628C90.9547 71.8333 91.328 71.936 91.7947 71.936Z" fill="white"/>
<path d="M20.746 98.14C19.8873 98.14 19.1733 97.9813 18.604 97.664C18.044 97.3467 17.6193 96.9033 17.33 96.334C17.0407 95.7647 16.882 95.102 16.854 94.346C16.8447 93.9633 16.84 93.5527 16.84 93.114C16.84 92.6753 16.8447 92.2553 16.854 91.854C16.882 91.098 17.0407 90.4353 17.33 89.866C17.6193 89.2967 18.044 88.8533 18.604 88.536C19.1733 88.2187 19.8873 88.06 20.746 88.06C21.39 88.06 21.9547 88.1487 22.44 88.326C22.9253 88.5033 23.3267 88.7413 23.644 89.04C23.9707 89.3387 24.218 89.6747 24.386 90.048C24.554 90.412 24.6473 90.79 24.666 91.182C24.6753 91.266 24.6473 91.336 24.582 91.392C24.526 91.448 24.456 91.476 24.372 91.476H23.602C23.518 91.476 23.4433 91.4527 23.378 91.406C23.322 91.3593 23.28 91.2753 23.252 91.154C23.0933 90.426 22.7947 89.9267 22.356 89.656C21.9267 89.3853 21.3853 89.25 20.732 89.25C19.9853 89.25 19.3927 89.4647 18.954 89.894C18.5153 90.314 18.2773 90.9907 18.24 91.924C18.212 92.6893 18.212 93.4733 18.24 94.276C18.2773 95.2093 18.5153 95.8907 18.954 96.32C19.3927 96.74 19.9853 96.95 20.732 96.95C21.3853 96.95 21.9267 96.8147 22.356 96.544C22.7947 96.2733 23.0933 95.774 23.252 95.046C23.28 94.9247 23.322 94.8407 23.378 94.794C23.4433 94.7473 23.518 94.724 23.602 94.724H24.372C24.456 94.724 24.526 94.752 24.582 94.808C24.6473 94.864 24.6753 94.934 24.666 95.018C24.6473 95.41 24.554 95.7927 24.386 96.166C24.218 96.53 23.9707 96.8613 23.644 97.16C23.3267 97.4587 22.9253 97.6967 22.44 97.874C21.9547 98.0513 21.39 98.14 20.746 98.14ZM29.3422 98.14C28.6329 98.14 28.0402 98.0047 27.5642 97.734C27.0882 97.4633 26.7242 97.09 26.4722 96.614C26.2202 96.1287 26.0802 95.578 26.0522 94.962C26.0429 94.8033 26.0382 94.6027 26.0382 94.36C26.0382 94.108 26.0429 93.9073 26.0522 93.758C26.0802 93.1327 26.2202 92.582 26.4722 92.106C26.7336 91.63 27.1022 91.2567 27.5782 90.986C28.0542 90.7153 28.6422 90.58 29.3422 90.58C30.0422 90.58 30.6302 90.7153 31.1062 90.986C31.5822 91.2567 31.9462 91.63 32.1982 92.106C32.4596 92.582 32.6042 93.1327 32.6322 93.758C32.6416 93.9073 32.6462 94.108 32.6462 94.36C32.6462 94.6027 32.6416 94.8033 32.6322 94.962C32.6042 95.578 32.4642 96.1287 32.2122 96.614C31.9602 97.09 31.5962 97.4633 31.1202 97.734C30.6442 98.0047 30.0516 98.14 29.3422 98.14ZM29.3422 97.062C29.9209 97.062 30.3829 96.88 30.7282 96.516C31.0736 96.1427 31.2602 95.6013 31.2882 94.892C31.2976 94.752 31.3022 94.5747 31.3022 94.36C31.3022 94.1453 31.2976 93.968 31.2882 93.828C31.2602 93.1187 31.0736 92.582 30.7282 92.218C30.3829 91.8447 29.9209 91.658 29.3422 91.658C28.7636 91.658 28.2969 91.8447 27.9422 92.218C27.5969 92.582 27.4149 93.1187 27.3962 93.828C27.3869 93.968 27.3822 94.1453 27.3822 94.36C27.3822 94.5747 27.3869 94.752 27.3962 94.892C27.4149 95.6013 27.5969 96.1427 27.9422 96.516C28.2969 96.88 28.7636 97.062 29.3422 97.062ZM37.1153 98.14C36.5179 98.14 36.0093 98.0093 35.5893 97.748C35.1786 97.4773 34.8659 97.104 34.6513 96.628C34.4366 96.152 34.3293 95.606 34.3293 94.99V91.042C34.3293 90.9487 34.3573 90.874 34.4133 90.818C34.4786 90.7527 34.5579 90.72 34.6513 90.72H35.3513C35.4446 90.72 35.5193 90.7527 35.5753 90.818C35.6406 90.874 35.6733 90.9487 35.6733 91.042V94.92C35.6733 96.3107 36.2799 97.006 37.4933 97.006C38.0719 97.006 38.5339 96.824 38.8793 96.46C39.2339 96.0867 39.4113 95.5733 39.4113 94.92V91.042C39.4113 90.9487 39.4393 90.874 39.4953 90.818C39.5606 90.7527 39.6399 90.72 39.7333 90.72H40.4193C40.5219 90.72 40.6013 90.7527 40.6573 90.818C40.7133 90.874 40.7413 90.9487 40.7413 91.042V97.678C40.7413 97.7713 40.7133 97.8507 40.6573 97.916C40.6013 97.972 40.5219 98 40.4193 98H39.7753C39.6819 98 39.6026 97.972 39.5373 97.916C39.4813 97.8507 39.4533 97.7713 39.4533 97.678V97.062C39.2013 97.3887 38.8933 97.65 38.5293 97.846C38.1746 98.042 37.7033 98.14 37.1153 98.14ZM43.1432 98C43.0498 98 42.9705 97.972 42.9052 97.916C42.8492 97.8507 42.8212 97.7713 42.8212 97.678V91.042C42.8212 90.9487 42.8492 90.874 42.9052 90.818C42.9705 90.7527 43.0498 90.72 43.1432 90.72H43.8012C43.8945 90.72 43.9692 90.7527 44.0252 90.818C44.0905 90.874 44.1232 90.9487 44.1232 91.042V91.658C44.3658 91.3407 44.6692 91.084 45.0332 90.888C45.4065 90.6827 45.8825 90.58 46.4612 90.58C47.0678 90.58 47.5812 90.7153 48.0012 90.986C48.4305 91.2473 48.7525 91.616 48.9672 92.092C49.1818 92.5587 49.2892 93.1047 49.2892 93.73V97.678C49.2892 97.7713 49.2612 97.8507 49.2052 97.916C49.1492 97.972 49.0745 98 48.9812 98H48.2812C48.1878 98 48.1085 97.972 48.0432 97.916C47.9872 97.8507 47.9592 97.7713 47.9592 97.678V93.8C47.9592 93.1467 47.8005 92.638 47.4832 92.274C47.1658 91.9007 46.6992 91.714 46.0832 91.714C45.5045 91.714 45.0378 91.9007 44.6832 92.274C44.3378 92.638 44.1652 93.1467 44.1652 93.8V97.678C44.1652 97.7713 44.1325 97.8507 44.0672 97.916C44.0112 97.972 43.9365 98 43.8432 98H43.1432ZM54.0577 98C53.535 98 53.1104 97.902 52.7837 97.706C52.457 97.5007 52.219 97.216 52.0697 96.852C51.9204 96.4787 51.8457 96.04 51.8457 95.536V91.84H50.7537C50.6604 91.84 50.581 91.812 50.5157 91.756C50.4597 91.6907 50.4317 91.6113 50.4317 91.518V91.042C50.4317 90.9487 50.4597 90.874 50.5157 90.818C50.581 90.7527 50.6604 90.72 50.7537 90.72H51.8457V88.382C51.8457 88.2887 51.8737 88.214 51.9297 88.158C51.995 88.0927 52.0744 88.06 52.1677 88.06H52.8257C52.919 88.06 52.9937 88.0927 53.0497 88.158C53.115 88.214 53.1477 88.2887 53.1477 88.382V90.72H54.8837C54.977 90.72 55.0517 90.7527 55.1077 90.818C55.173 90.874 55.2057 90.9487 55.2057 91.042V91.518C55.2057 91.6113 55.173 91.6907 55.1077 91.756C55.0517 91.812 54.977 91.84 54.8837 91.84H53.1477V95.438C53.1477 95.8767 53.2224 96.222 53.3717 96.474C53.521 96.726 53.787 96.852 54.1697 96.852H55.0237C55.117 96.852 55.1917 96.8847 55.2477 96.95C55.313 97.006 55.3457 97.0807 55.3457 97.174V97.678C55.3457 97.7713 55.313 97.8507 55.2477 97.916C55.1917 97.972 55.117 98 55.0237 98H54.0577ZM57.0064 98C56.9131 98 56.8338 97.972 56.7684 97.916C56.7124 97.8507 56.6844 97.7713 56.6844 97.678V91.056C56.6844 90.9627 56.7124 90.8833 56.7684 90.818C56.8338 90.7527 56.9131 90.72 57.0064 90.72H57.6504C57.7438 90.72 57.8231 90.7527 57.8884 90.818C57.9538 90.8833 57.9864 90.9627 57.9864 91.056V91.672C58.1731 91.3547 58.4298 91.1167 58.7564 90.958C59.0831 90.7993 59.4751 90.72 59.9324 90.72H60.4924C60.5858 90.72 60.6604 90.7527 60.7164 90.818C60.7724 90.874 60.8004 90.9487 60.8004 91.042V91.616C60.8004 91.7093 60.7724 91.784 60.7164 91.84C60.6604 91.896 60.5858 91.924 60.4924 91.924H59.6524C59.1484 91.924 58.7518 92.0733 58.4624 92.372C58.1731 92.6613 58.0284 93.058 58.0284 93.562V97.678C58.0284 97.7713 57.9958 97.8507 57.9304 97.916C57.8651 97.972 57.7858 98 57.6924 98H57.0064ZM62.3248 98C62.2315 98 62.1521 97.972 62.0868 97.916C62.0308 97.8507 62.0028 97.7713 62.0028 97.678V91.042C62.0028 90.9487 62.0308 90.874 62.0868 90.818C62.1521 90.7527 62.2315 90.72 62.3248 90.72H62.9968C63.0901 90.72 63.1648 90.7527 63.2208 90.818C63.2768 90.874 63.3048 90.9487 63.3048 91.042V97.678C63.3048 97.7713 63.2768 97.8507 63.2208 97.916C63.1648 97.972 63.0901 98 62.9968 98H62.3248ZM62.2128 89.362C62.1195 89.362 62.0401 89.334 61.9748 89.278C61.9188 89.2127 61.8908 89.1333 61.8908 89.04V88.284C61.8908 88.1907 61.9188 88.116 61.9748 88.06C62.0401 87.9947 62.1195 87.962 62.2128 87.962H63.0948C63.1881 87.962 63.2628 87.9947 63.3188 88.06C63.3841 88.116 63.4168 88.1907 63.4168 88.284V89.04C63.4168 89.1333 63.3841 89.2127 63.3188 89.278C63.2628 89.334 63.1881 89.362 63.0948 89.362H62.2128ZM68.3188 98.14C67.3574 98.14 66.5921 97.846 66.0228 97.258C65.4534 96.6607 65.1408 95.8487 65.0848 94.822C65.0754 94.7007 65.0708 94.5467 65.0708 94.36C65.0708 94.164 65.0754 94.0053 65.0848 93.884C65.1221 93.2213 65.2761 92.6427 65.5468 92.148C65.8174 91.644 66.1861 91.2567 66.6528 90.986C67.1288 90.7153 67.6841 90.58 68.3188 90.58C69.0281 90.58 69.6208 90.7293 70.0968 91.028C70.5821 91.3267 70.9508 91.7513 71.2028 92.302C71.4548 92.8527 71.5808 93.4967 71.5808 94.234V94.472C71.5808 94.5747 71.5481 94.654 71.4828 94.71C71.4268 94.766 71.3521 94.794 71.2588 94.794H66.4148C66.4148 94.8033 66.4148 94.822 66.4148 94.85C66.4148 94.878 66.4148 94.9013 66.4148 94.92C66.4334 95.3027 66.5174 95.662 66.6668 95.998C66.8161 96.3247 67.0308 96.5907 67.3108 96.796C67.5908 97.0013 67.9268 97.104 68.3188 97.104C68.6548 97.104 68.9348 97.0527 69.1588 96.95C69.3828 96.8473 69.5648 96.7353 69.7048 96.614C69.8448 96.4833 69.9381 96.3853 69.9848 96.32C70.0688 96.1987 70.1341 96.1287 70.1808 96.11C70.2274 96.082 70.3021 96.068 70.4048 96.068H71.0768C71.1701 96.068 71.2448 96.096 71.3008 96.152C71.3661 96.1987 71.3941 96.2687 71.3848 96.362C71.3754 96.502 71.3008 96.6747 71.1608 96.88C71.0208 97.076 70.8201 97.272 70.5588 97.468C70.2974 97.664 69.9801 97.8273 69.6068 97.958C69.2334 98.0793 68.8041 98.14 68.3188 98.14ZM66.4148 93.828H70.2508V93.786C70.2508 93.366 70.1714 92.9927 70.0128 92.666C69.8634 92.3393 69.6441 92.0827 69.3548 91.896C69.0654 91.7 68.7201 91.602 68.3188 91.602C67.9174 91.602 67.5721 91.7 67.2828 91.896C67.0028 92.0827 66.7881 92.3393 66.6388 92.666C66.4894 92.9927 66.4148 93.366 66.4148 93.786V93.828ZM75.7748 98.14C75.2521 98.14 74.8041 98.0747 74.4308 97.944C74.0574 97.8133 73.7541 97.6547 73.5208 97.468C73.2874 97.2813 73.1101 97.0947 72.9888 96.908C72.8768 96.7213 72.8161 96.572 72.8068 96.46C72.7974 96.3573 72.8301 96.278 72.9048 96.222C72.9794 96.166 73.0541 96.138 73.1288 96.138H73.7448C73.8008 96.138 73.8428 96.1473 73.8708 96.166C73.9081 96.1753 73.9548 96.2127 74.0108 96.278C74.1321 96.4087 74.2674 96.5393 74.4168 96.67C74.5661 96.8007 74.7481 96.908 74.9628 96.992C75.1868 97.076 75.4621 97.118 75.7888 97.118C76.2648 97.118 76.6568 97.0293 76.9648 96.852C77.2728 96.6653 77.4268 96.3947 77.4268 96.04C77.4268 95.8067 77.3614 95.62 77.2308 95.48C77.1094 95.34 76.8854 95.214 76.5588 95.102C76.2414 94.99 75.8028 94.8733 75.2428 94.752C74.6828 94.6213 74.2394 94.4627 73.9128 94.276C73.5861 94.08 73.3528 93.8513 73.2128 93.59C73.0728 93.3193 73.0028 93.016 73.0028 92.68C73.0028 92.3347 73.1054 92.0033 73.3108 91.686C73.5161 91.3593 73.8148 91.0933 74.2068 90.888C74.6081 90.6827 75.1074 90.58 75.7048 90.58C76.1901 90.58 76.6054 90.6407 76.9508 90.762C77.2961 90.8833 77.5808 91.0373 77.8048 91.224C78.0288 91.4013 78.1968 91.5787 78.3088 91.756C78.4208 91.9333 78.4814 92.0827 78.4908 92.204C78.5001 92.2973 78.4721 92.3767 78.4068 92.442C78.3414 92.498 78.2668 92.526 78.1828 92.526H77.5948C77.5294 92.526 77.4734 92.512 77.4268 92.484C77.3894 92.456 77.3521 92.4233 77.3148 92.386C77.2214 92.2647 77.1094 92.1433 76.9788 92.022C76.8574 91.9007 76.6941 91.8027 76.4888 91.728C76.2928 91.644 76.0314 91.602 75.7048 91.602C75.2381 91.602 74.8881 91.7 74.6548 91.896C74.4214 92.092 74.3048 92.3393 74.3048 92.638C74.3048 92.8153 74.3561 92.974 74.4588 93.114C74.5614 93.254 74.7574 93.38 75.0468 93.492C75.3361 93.604 75.7654 93.7253 76.3347 93.856C76.9508 93.9773 77.4361 94.1407 77.7908 94.346C78.1454 94.5513 78.3974 94.7893 78.5468 95.06C78.6961 95.3307 78.7708 95.6433 78.7708 95.998C78.7708 96.39 78.6541 96.7493 78.4208 97.076C78.1968 97.4027 77.8608 97.664 77.4128 97.86C76.9741 98.0467 76.4281 98.14 75.7748 98.14Z" fill="white"/>
<path d="M17.54 123C17.4467 123 17.3673 122.972 17.302 122.916C17.246 122.851 17.218 122.771 17.218 122.678V113.536C17.218 113.433 17.246 113.354 17.302 113.298C17.3673 113.233 17.4467 113.2 17.54 113.2H18.24C18.352 113.2 18.436 113.228 18.492 113.284C18.548 113.34 18.5807 113.387 18.59 113.424L21.558 119.08L24.54 113.424C24.5587 113.387 24.5913 113.34 24.638 113.284C24.694 113.228 24.778 113.2 24.89 113.2H25.576C25.6787 113.2 25.758 113.233 25.814 113.298C25.8793 113.354 25.912 113.433 25.912 113.536V122.678C25.912 122.771 25.8793 122.851 25.814 122.916C25.758 122.972 25.6787 123 25.576 123H24.89C24.7967 123 24.7173 122.972 24.652 122.916C24.596 122.851 24.568 122.771 24.568 122.678V115.79L22.23 120.354C22.1927 120.447 22.1367 120.522 22.062 120.578C21.9873 120.625 21.894 120.648 21.782 120.648H21.348C21.2267 120.648 21.1287 120.625 21.054 120.578C20.9887 120.522 20.9327 120.447 20.886 120.354L18.548 115.79V122.678C18.548 122.771 18.5153 122.851 18.45 122.916C18.394 122.972 18.3193 123 18.226 123H17.54ZM31.0492 123.14C30.0879 123.14 29.3226 122.846 28.7532 122.258C28.1839 121.661 27.8712 120.849 27.8152 119.822C27.8059 119.701 27.8012 119.547 27.8012 119.36C27.8012 119.164 27.8059 119.005 27.8152 118.884C27.8526 118.221 28.0066 117.643 28.2772 117.148C28.5479 116.644 28.9166 116.257 29.3832 115.986C29.8592 115.715 30.4146 115.58 31.0492 115.58C31.7586 115.58 32.3512 115.729 32.8272 116.028C33.3126 116.327 33.6812 116.751 33.9332 117.302C34.1852 117.853 34.3112 118.497 34.3112 119.234V119.472C34.3112 119.575 34.2786 119.654 34.2132 119.71C34.1572 119.766 34.0826 119.794 33.9892 119.794H29.1452C29.1452 119.803 29.1452 119.822 29.1452 119.85C29.1452 119.878 29.1452 119.901 29.1452 119.92C29.1639 120.303 29.2479 120.662 29.3972 120.998C29.5466 121.325 29.7612 121.591 30.0412 121.796C30.3212 122.001 30.6572 122.104 31.0492 122.104C31.3852 122.104 31.6652 122.053 31.8892 121.95C32.1132 121.847 32.2952 121.735 32.4352 121.614C32.5752 121.483 32.6686 121.385 32.7152 121.32C32.7992 121.199 32.8646 121.129 32.9112 121.11C32.9579 121.082 33.0326 121.068 33.1352 121.068H33.8072C33.9006 121.068 33.9752 121.096 34.0312 121.152C34.0966 121.199 34.1246 121.269 34.1152 121.362C34.1059 121.502 34.0312 121.675 33.8912 121.88C33.7512 122.076 33.5506 122.272 33.2892 122.468C33.0279 122.664 32.7106 122.827 32.3372 122.958C31.9639 123.079 31.5346 123.14 31.0492 123.14ZM29.1452 118.828H32.9812V118.786C32.9812 118.366 32.9019 117.993 32.7432 117.666C32.5939 117.339 32.3746 117.083 32.0852 116.896C31.7959 116.7 31.4506 116.602 31.0492 116.602C30.6479 116.602 30.3026 116.7 30.0132 116.896C29.7332 117.083 29.5186 117.339 29.3692 117.666C29.2199 117.993 29.1452 118.366 29.1452 118.786V118.828ZM36.3072 123C36.2139 123 36.1346 122.972 36.0692 122.916C36.0132 122.851 35.9852 122.771 35.9852 122.678V116.042C35.9852 115.949 36.0132 115.874 36.0692 115.818C36.1346 115.753 36.2139 115.72 36.3072 115.72H36.9372C37.0306 115.72 37.1052 115.753 37.1612 115.818C37.2266 115.874 37.2592 115.949 37.2592 116.042V116.532C37.4739 116.243 37.7446 116.014 38.0712 115.846C38.3979 115.669 38.7899 115.58 39.2472 115.58C40.3019 115.571 41.0486 116 41.4872 116.868C41.7019 116.476 42.0146 116.163 42.4252 115.93C42.8359 115.697 43.3026 115.58 43.8252 115.58C44.3106 115.58 44.7492 115.692 45.1412 115.916C45.5426 116.14 45.8552 116.481 46.0792 116.938C46.3126 117.386 46.4292 117.951 46.4292 118.632V122.678C46.4292 122.771 46.3966 122.851 46.3312 122.916C46.2752 122.972 46.2006 123 46.1072 123H45.4492C45.3559 123 45.2766 122.972 45.2112 122.916C45.1552 122.851 45.1272 122.771 45.1272 122.678V118.758C45.1272 118.235 45.0526 117.825 44.9032 117.526C44.7539 117.227 44.5532 117.017 44.3012 116.896C44.0492 116.775 43.7739 116.714 43.4752 116.714C43.2326 116.714 42.9852 116.775 42.7332 116.896C42.4812 117.017 42.2712 117.227 42.1032 117.526C41.9446 117.825 41.8652 118.235 41.8652 118.758V122.678C41.8652 122.771 41.8326 122.851 41.7672 122.916C41.7112 122.972 41.6366 123 41.5432 123H40.8852C40.7919 123 40.7126 122.972 40.6472 122.916C40.5912 122.851 40.5632 122.771 40.5632 122.678V118.758C40.5632 118.235 40.4839 117.825 40.3252 117.526C40.1666 117.227 39.9612 117.017 39.7092 116.896C39.4572 116.775 39.1912 116.714 38.9112 116.714C38.6686 116.714 38.4212 116.775 38.1692 116.896C37.9172 117.017 37.7072 117.227 37.5392 117.526C37.3806 117.825 37.3012 118.231 37.3012 118.744V122.678C37.3012 122.771 37.2686 122.851 37.2032 122.916C37.1472 122.972 37.0726 123 36.9792 123H36.3072ZM52.0246 123.14C51.4646 123.14 50.998 123.042 50.6246 122.846C50.2513 122.641 49.9526 122.389 49.7286 122.09V122.678C49.7286 122.771 49.696 122.851 49.6306 122.916C49.5746 122.972 49.5 123 49.4066 123H48.7626C48.6693 123 48.59 122.972 48.5246 122.916C48.4686 122.851 48.4406 122.771 48.4406 122.678V113.382C48.4406 113.289 48.4686 113.214 48.5246 113.158C48.59 113.093 48.6693 113.06 48.7626 113.06H49.4346C49.5373 113.06 49.6166 113.093 49.6726 113.158C49.7286 113.214 49.7566 113.289 49.7566 113.382V116.602C49.99 116.313 50.2886 116.07 50.6526 115.874C51.026 115.678 51.4833 115.58 52.0246 115.58C52.5473 115.58 52.9906 115.673 53.3546 115.86C53.728 116.037 54.0313 116.285 54.2646 116.602C54.5073 116.919 54.6893 117.279 54.8106 117.68C54.932 118.081 54.9973 118.501 55.0066 118.94C55.016 119.089 55.0206 119.229 55.0206 119.36C55.0206 119.491 55.016 119.631 55.0066 119.78C54.9973 120.228 54.932 120.653 54.8106 121.054C54.6893 121.455 54.5073 121.815 54.2646 122.132C54.0313 122.44 53.728 122.687 53.3546 122.874C52.9906 123.051 52.5473 123.14 52.0246 123.14ZM51.7306 122.006C52.216 122.006 52.594 121.903 52.8646 121.698C53.1446 121.483 53.3453 121.208 53.4666 120.872C53.588 120.527 53.658 120.158 53.6766 119.766C53.686 119.495 53.686 119.225 53.6766 118.954C53.658 118.562 53.588 118.198 53.4666 117.862C53.3453 117.517 53.1446 117.241 52.8646 117.036C52.594 116.821 52.216 116.714 51.7306 116.714C51.292 116.714 50.928 116.817 50.6386 117.022C50.3493 117.227 50.13 117.489 49.9806 117.806C49.8406 118.123 49.766 118.445 49.7566 118.772C49.7473 118.921 49.7426 119.103 49.7426 119.318C49.7426 119.523 49.7473 119.701 49.7566 119.85C49.7753 120.195 49.85 120.536 49.9806 120.872C50.1206 121.199 50.3306 121.469 50.6106 121.684C50.9 121.899 51.2733 122.006 51.7306 122.006ZM59.6508 123.14C58.6895 123.14 57.9241 122.846 57.3548 122.258C56.7855 121.661 56.4728 120.849 56.4168 119.822C56.4075 119.701 56.4028 119.547 56.4028 119.36C56.4028 119.164 56.4075 119.005 56.4168 118.884C56.4541 118.221 56.6081 117.643 56.8788 117.148C57.1495 116.644 57.5181 116.257 57.9848 115.986C58.4608 115.715 59.0161 115.58 59.6508 115.58C60.3601 115.58 60.9528 115.729 61.4288 116.028C61.9141 116.327 62.2828 116.751 62.5348 117.302C62.7868 117.853 62.9128 118.497 62.9128 119.234V119.472C62.9128 119.575 62.8801 119.654 62.8148 119.71C62.7588 119.766 62.6841 119.794 62.5908 119.794H57.7468C57.7468 119.803 57.7468 119.822 57.7468 119.85C57.7468 119.878 57.7468 119.901 57.7468 119.92C57.7655 120.303 57.8495 120.662 57.9988 120.998C58.1481 121.325 58.3628 121.591 58.6428 121.796C58.9228 122.001 59.2588 122.104 59.6508 122.104C59.9868 122.104 60.2668 122.053 60.4908 121.95C60.7148 121.847 60.8968 121.735 61.0368 121.614C61.1768 121.483 61.2701 121.385 61.3168 121.32C61.4008 121.199 61.4661 121.129 61.5128 121.11C61.5595 121.082 61.6341 121.068 61.7368 121.068H62.4088C62.5021 121.068 62.5768 121.096 62.6328 121.152C62.6981 121.199 62.7261 121.269 62.7168 121.362C62.7075 121.502 62.6328 121.675 62.4928 121.88C62.3528 122.076 62.1521 122.272 61.8908 122.468C61.6295 122.664 61.3121 122.827 60.9388 122.958C60.5655 123.079 60.1361 123.14 59.6508 123.14ZM57.7468 118.828H61.5828V118.786C61.5828 118.366 61.5035 117.993 61.3448 117.666C61.1955 117.339 60.9761 117.083 60.6868 116.896C60.3975 116.7 60.0521 116.602 59.6508 116.602C59.2495 116.602 58.9041 116.7 58.6148 116.896C58.3348 117.083 58.1201 117.339 57.9708 117.666C57.8215 117.993 57.7468 118.366 57.7468 118.786V118.828ZM64.9088 123C64.8154 123 64.7361 122.972 64.6708 122.916C64.6148 122.851 64.5868 122.771 64.5868 122.678V116.056C64.5868 115.963 64.6148 115.883 64.6708 115.818C64.7361 115.753 64.8154 115.72 64.9088 115.72H65.5528C65.6461 115.72 65.7254 115.753 65.7908 115.818C65.8561 115.883 65.8888 115.963 65.8888 116.056V116.672C66.0754 116.355 66.3321 116.117 66.6588 115.958C66.9854 115.799 67.3774 115.72 67.8348 115.72H68.3948C68.4881 115.72 68.5628 115.753 68.6188 115.818C68.6748 115.874 68.7028 115.949 68.7028 116.042V116.616C68.7028 116.709 68.6748 116.784 68.6188 116.84C68.5628 116.896 68.4881 116.924 68.3948 116.924H67.5548C67.0508 116.924 66.6541 117.073 66.3648 117.372C66.0754 117.661 65.9308 118.058 65.9308 118.562V122.678C65.9308 122.771 65.8981 122.851 65.8328 122.916C65.7674 122.972 65.6881 123 65.5948 123H64.9088ZM72.4251 123.14C71.9025 123.14 71.4545 123.075 71.0811 122.944C70.7078 122.813 70.4045 122.655 70.1711 122.468C69.9378 122.281 69.7605 122.095 69.6391 121.908C69.5271 121.721 69.4665 121.572 69.4571 121.46C69.4478 121.357 69.4805 121.278 69.5551 121.222C69.6298 121.166 69.7045 121.138 69.7791 121.138H70.3951C70.4511 121.138 70.4931 121.147 70.5211 121.166C70.5585 121.175 70.6051 121.213 70.6611 121.278C70.7825 121.409 70.9178 121.539 71.0671 121.67C71.2165 121.801 71.3985 121.908 71.6131 121.992C71.8371 122.076 72.1125 122.118 72.4391 122.118C72.9151 122.118 73.3071 122.029 73.6151 121.852C73.9231 121.665 74.0771 121.395 74.0771 121.04C74.0771 120.807 74.0118 120.62 73.8811 120.48C73.7598 120.34 73.5358 120.214 73.2091 120.102C72.8918 119.99 72.4531 119.873 71.8931 119.752C71.3331 119.621 70.8898 119.463 70.5631 119.276C70.2365 119.08 70.0031 118.851 69.8631 118.59C69.7231 118.319 69.6531 118.016 69.6531 117.68C69.6531 117.335 69.7558 117.003 69.9611 116.686C70.1665 116.359 70.4651 116.093 70.8571 115.888C71.2585 115.683 71.7578 115.58 72.3551 115.58C72.8405 115.58 73.2558 115.641 73.6011 115.762C73.9465 115.883 74.2311 116.037 74.4551 116.224C74.6791 116.401 74.8471 116.579 74.9591 116.756C75.0711 116.933 75.1318 117.083 75.1411 117.204C75.1505 117.297 75.1225 117.377 75.0571 117.442C74.9918 117.498 74.9171 117.526 74.8331 117.526H74.2451C74.1798 117.526 74.1238 117.512 74.0771 117.484C74.0398 117.456 74.0025 117.423 73.9651 117.386C73.8718 117.265 73.7598 117.143 73.6291 117.022C73.5078 116.901 73.3445 116.803 73.1391 116.728C72.9431 116.644 72.6818 116.602 72.3551 116.602C71.8885 116.602 71.5385 116.7 71.3051 116.896C71.0718 117.092 70.9551 117.339 70.9551 117.638C70.9551 117.815 71.0065 117.974 71.1091 118.114C71.2118 118.254 71.4078 118.38 71.6971 118.492C71.9865 118.604 72.4158 118.725 72.9851 118.856C73.6011 118.977 74.0865 119.141 74.4411 119.346C74.7958 119.551 75.0478 119.789 75.1971 120.06C75.3465 120.331 75.4211 120.643 75.4211 120.998C75.4211 121.39 75.3045 121.749 75.0711 122.076C74.8471 122.403 74.5111 122.664 74.0631 122.86C73.6245 123.047 73.0785 123.14 72.4251 123.14Z" fill="white"/>
<rect x="309" y="169" width="127" height="30" rx="5" fill="#2F3239"/>
<path d="M320.864 189.5C320.771 189.5 320.691 189.472 320.626 189.416C320.57 189.351 320.542 189.271 320.542 189.178V181.338L318.218 183.13C318.143 183.186 318.064 183.209 317.98 183.2C317.896 183.191 317.826 183.149 317.77 183.074L317.406 182.612C317.35 182.528 317.327 182.444 317.336 182.36C317.355 182.276 317.401 182.206 317.476 182.15L320.528 179.798C320.593 179.751 320.654 179.723 320.71 179.714C320.766 179.705 320.827 179.7 320.892 179.7H321.606C321.699 179.7 321.774 179.733 321.83 179.798C321.886 179.854 321.914 179.929 321.914 180.022V189.178C321.914 189.271 321.886 189.351 321.83 189.416C321.774 189.472 321.699 189.5 321.606 189.5H320.864ZM324.276 185.888C324.183 185.888 324.104 185.86 324.038 185.804C323.982 185.739 323.954 185.659 323.954 185.566V185.034C323.954 184.941 323.982 184.866 324.038 184.81C324.104 184.745 324.183 184.712 324.276 184.712H328.476C328.57 184.712 328.644 184.745 328.7 184.81C328.766 184.866 328.798 184.941 328.798 185.034V185.566C328.798 185.659 328.766 185.739 328.7 185.804C328.644 185.86 328.57 185.888 328.476 185.888H324.276ZM335.384 189.5C335.29 189.5 335.211 189.472 335.146 189.416C335.09 189.351 335.062 189.271 335.062 189.178V187.162H330.526C330.432 187.162 330.353 187.134 330.288 187.078C330.232 187.013 330.204 186.933 330.204 186.84V186.28C330.204 186.243 330.213 186.187 330.232 186.112C330.26 186.028 330.302 185.944 330.358 185.86L334.558 179.938C334.67 179.779 334.842 179.7 335.076 179.7H336.084C336.177 179.7 336.252 179.733 336.308 179.798C336.373 179.854 336.406 179.929 336.406 180.022V185.944H337.666C337.768 185.944 337.848 185.977 337.904 186.042C337.969 186.098 338.002 186.173 338.002 186.266V186.84C338.002 186.933 337.969 187.013 337.904 187.078C337.848 187.134 337.773 187.162 337.68 187.162H336.406V189.178C336.406 189.271 336.373 189.351 336.308 189.416C336.252 189.472 336.177 189.5 336.084 189.5H335.384ZM331.702 185.972H335.076V181.17L331.702 185.972ZM343.254 189.5C343.161 189.5 343.082 189.472 343.016 189.416C342.96 189.351 342.932 189.271 342.932 189.178V182.542C342.932 182.449 342.96 182.374 343.016 182.318C343.082 182.253 343.161 182.22 343.254 182.22H343.884C343.978 182.22 344.052 182.253 344.108 182.318C344.174 182.374 344.206 182.449 344.206 182.542V183.032C344.421 182.743 344.692 182.514 345.018 182.346C345.345 182.169 345.737 182.08 346.194 182.08C347.249 182.071 347.996 182.5 348.434 183.368C348.649 182.976 348.962 182.663 349.372 182.43C349.783 182.197 350.25 182.08 350.772 182.08C351.258 182.08 351.696 182.192 352.088 182.416C352.49 182.64 352.802 182.981 353.026 183.438C353.26 183.886 353.376 184.451 353.376 185.132V189.178C353.376 189.271 353.344 189.351 353.278 189.416C353.222 189.472 353.148 189.5 353.054 189.5H352.396C352.303 189.5 352.224 189.472 352.158 189.416C352.102 189.351 352.074 189.271 352.074 189.178V185.258C352.074 184.735 352 184.325 351.85 184.026C351.701 183.727 351.5 183.517 351.248 183.396C350.996 183.275 350.721 183.214 350.422 183.214C350.18 183.214 349.932 183.275 349.68 183.396C349.428 183.517 349.218 183.727 349.05 184.026C348.892 184.325 348.812 184.735 348.812 185.258V189.178C348.812 189.271 348.78 189.351 348.714 189.416C348.658 189.472 348.584 189.5 348.49 189.5H347.832C347.739 189.5 347.66 189.472 347.594 189.416C347.538 189.351 347.51 189.271 347.51 189.178V185.258C347.51 184.735 347.431 184.325 347.272 184.026C347.114 183.727 346.908 183.517 346.656 183.396C346.404 183.275 346.138 183.214 345.858 183.214C345.616 183.214 345.368 183.275 345.116 183.396C344.864 183.517 344.654 183.727 344.486 184.026C344.328 184.325 344.248 184.731 344.248 185.244V189.178C344.248 189.271 344.216 189.351 344.15 189.416C344.094 189.472 344.02 189.5 343.926 189.5H343.254ZM358.272 189.64C357.311 189.64 356.545 189.346 355.976 188.758C355.407 188.161 355.094 187.349 355.038 186.322C355.029 186.201 355.024 186.047 355.024 185.86C355.024 185.664 355.029 185.505 355.038 185.384C355.075 184.721 355.229 184.143 355.5 183.648C355.771 183.144 356.139 182.757 356.606 182.486C357.082 182.215 357.637 182.08 358.272 182.08C358.981 182.08 359.574 182.229 360.05 182.528C360.535 182.827 360.904 183.251 361.156 183.802C361.408 184.353 361.534 184.997 361.534 185.734V185.972C361.534 186.075 361.501 186.154 361.436 186.21C361.38 186.266 361.305 186.294 361.212 186.294H356.368C356.368 186.303 356.368 186.322 356.368 186.35C356.368 186.378 356.368 186.401 356.368 186.42C356.387 186.803 356.471 187.162 356.62 187.498C356.769 187.825 356.984 188.091 357.264 188.296C357.544 188.501 357.88 188.604 358.272 188.604C358.608 188.604 358.888 188.553 359.112 188.45C359.336 188.347 359.518 188.235 359.658 188.114C359.798 187.983 359.891 187.885 359.938 187.82C360.022 187.699 360.087 187.629 360.134 187.61C360.181 187.582 360.255 187.568 360.358 187.568H361.03C361.123 187.568 361.198 187.596 361.254 187.652C361.319 187.699 361.347 187.769 361.338 187.862C361.329 188.002 361.254 188.175 361.114 188.38C360.974 188.576 360.773 188.772 360.512 188.968C360.251 189.164 359.933 189.327 359.56 189.458C359.187 189.579 358.757 189.64 358.272 189.64ZM356.368 185.328H360.204V185.286C360.204 184.866 360.125 184.493 359.966 184.166C359.817 183.839 359.597 183.583 359.308 183.396C359.019 183.2 358.673 183.102 358.272 183.102C357.871 183.102 357.525 183.2 357.236 183.396C356.956 183.583 356.741 183.839 356.592 184.166C356.443 184.493 356.368 184.866 356.368 185.286V185.328ZM363.53 189.5C363.437 189.5 363.357 189.472 363.292 189.416C363.236 189.351 363.208 189.271 363.208 189.178V182.542C363.208 182.449 363.236 182.374 363.292 182.318C363.357 182.253 363.437 182.22 363.53 182.22H364.16C364.253 182.22 364.328 182.253 364.384 182.318C364.449 182.374 364.482 182.449 364.482 182.542V183.032C364.697 182.743 364.967 182.514 365.294 182.346C365.621 182.169 366.013 182.08 366.47 182.08C367.525 182.071 368.271 182.5 368.71 183.368C368.925 182.976 369.237 182.663 369.648 182.43C370.059 182.197 370.525 182.08 371.048 182.08C371.533 182.08 371.972 182.192 372.364 182.416C372.765 182.64 373.078 182.981 373.302 183.438C373.535 183.886 373.652 184.451 373.652 185.132V189.178C373.652 189.271 373.619 189.351 373.554 189.416C373.498 189.472 373.423 189.5 373.33 189.5H372.672C372.579 189.5 372.499 189.472 372.434 189.416C372.378 189.351 372.35 189.271 372.35 189.178V185.258C372.35 184.735 372.275 184.325 372.126 184.026C371.977 183.727 371.776 183.517 371.524 183.396C371.272 183.275 370.997 183.214 370.698 183.214C370.455 183.214 370.208 183.275 369.956 183.396C369.704 183.517 369.494 183.727 369.326 184.026C369.167 184.325 369.088 184.735 369.088 185.258V189.178C369.088 189.271 369.055 189.351 368.99 189.416C368.934 189.472 368.859 189.5 368.766 189.5H368.108C368.015 189.5 367.935 189.472 367.87 189.416C367.814 189.351 367.786 189.271 367.786 189.178V185.258C367.786 184.735 367.707 184.325 367.548 184.026C367.389 183.727 367.184 183.517 366.932 183.396C366.68 183.275 366.414 183.214 366.134 183.214C365.891 183.214 365.644 183.275 365.392 183.396C365.14 183.517 364.93 183.727 364.762 184.026C364.603 184.325 364.524 184.731 364.524 185.244V189.178C364.524 189.271 364.491 189.351 364.426 189.416C364.37 189.472 364.295 189.5 364.202 189.5H363.53ZM379.247 189.64C378.687 189.64 378.221 189.542 377.847 189.346C377.474 189.141 377.175 188.889 376.951 188.59V189.178C376.951 189.271 376.919 189.351 376.853 189.416C376.797 189.472 376.723 189.5 376.629 189.5H375.985C375.892 189.5 375.813 189.472 375.747 189.416C375.691 189.351 375.663 189.271 375.663 189.178V179.882C375.663 179.789 375.691 179.714 375.747 179.658C375.813 179.593 375.892 179.56 375.985 179.56H376.657C376.76 179.56 376.839 179.593 376.895 179.658C376.951 179.714 376.979 179.789 376.979 179.882V183.102C377.213 182.813 377.511 182.57 377.875 182.374C378.249 182.178 378.706 182.08 379.247 182.08C379.77 182.08 380.213 182.173 380.577 182.36C380.951 182.537 381.254 182.785 381.487 183.102C381.73 183.419 381.912 183.779 382.033 184.18C382.155 184.581 382.22 185.001 382.229 185.44C382.239 185.589 382.243 185.729 382.243 185.86C382.243 185.991 382.239 186.131 382.229 186.28C382.22 186.728 382.155 187.153 382.033 187.554C381.912 187.955 381.73 188.315 381.487 188.632C381.254 188.94 380.951 189.187 380.577 189.374C380.213 189.551 379.77 189.64 379.247 189.64ZM378.953 188.506C379.439 188.506 379.817 188.403 380.087 188.198C380.367 187.983 380.568 187.708 380.689 187.372C380.811 187.027 380.881 186.658 380.899 186.266C380.909 185.995 380.909 185.725 380.899 185.454C380.881 185.062 380.811 184.698 380.689 184.362C380.568 184.017 380.367 183.741 380.087 183.536C379.817 183.321 379.439 183.214 378.953 183.214C378.515 183.214 378.151 183.317 377.861 183.522C377.572 183.727 377.353 183.989 377.203 184.306C377.063 184.623 376.989 184.945 376.979 185.272C376.97 185.421 376.965 185.603 376.965 185.818C376.965 186.023 376.97 186.201 376.979 186.35C376.998 186.695 377.073 187.036 377.203 187.372C377.343 187.699 377.553 187.969 377.833 188.184C378.123 188.399 378.496 188.506 378.953 188.506ZM386.873 189.64C385.912 189.64 385.147 189.346 384.577 188.758C384.008 188.161 383.695 187.349 383.639 186.322C383.63 186.201 383.625 186.047 383.625 185.86C383.625 185.664 383.63 185.505 383.639 185.384C383.677 184.721 383.831 184.143 384.101 183.648C384.372 183.144 384.741 182.757 385.207 182.486C385.683 182.215 386.239 182.08 386.873 182.08C387.583 182.08 388.175 182.229 388.651 182.528C389.137 182.827 389.505 183.251 389.757 183.802C390.009 184.353 390.135 184.997 390.135 185.734V185.972C390.135 186.075 390.103 186.154 390.037 186.21C389.981 186.266 389.907 186.294 389.813 186.294H384.969C384.969 186.303 384.969 186.322 384.969 186.35C384.969 186.378 384.969 186.401 384.969 186.42C384.988 186.803 385.072 187.162 385.221 187.498C385.371 187.825 385.585 188.091 385.865 188.296C386.145 188.501 386.481 188.604 386.873 188.604C387.209 188.604 387.489 188.553 387.713 188.45C387.937 188.347 388.119 188.235 388.259 188.114C388.399 187.983 388.493 187.885 388.539 187.82C388.623 187.699 388.689 187.629 388.735 187.61C388.782 187.582 388.857 187.568 388.959 187.568H389.631C389.725 187.568 389.799 187.596 389.855 187.652C389.921 187.699 389.949 187.769 389.939 187.862C389.93 188.002 389.855 188.175 389.715 188.38C389.575 188.576 389.375 188.772 389.113 188.968C388.852 189.164 388.535 189.327 388.161 189.458C387.788 189.579 387.359 189.64 386.873 189.64ZM384.969 185.328H388.805V185.286C388.805 184.866 388.726 184.493 388.567 184.166C388.418 183.839 388.199 183.583 387.909 183.396C387.62 183.2 387.275 183.102 386.873 183.102C386.472 183.102 386.127 183.2 385.837 183.396C385.557 183.583 385.343 183.839 385.193 184.166C385.044 184.493 384.969 184.866 384.969 185.286V185.328ZM392.131 189.5C392.038 189.5 391.959 189.472 391.893 189.416C391.837 189.351 391.809 189.271 391.809 189.178V182.556C391.809 182.463 391.837 182.383 391.893 182.318C391.959 182.253 392.038 182.22 392.131 182.22H392.775C392.869 182.22 392.948 182.253 393.013 182.318C393.079 182.383 393.111 182.463 393.111 182.556V183.172C393.298 182.855 393.555 182.617 393.881 182.458C394.208 182.299 394.6 182.22 395.057 182.22H395.617C395.711 182.22 395.785 182.253 395.841 182.318C395.897 182.374 395.925 182.449 395.925 182.542V183.116C395.925 183.209 395.897 183.284 395.841 183.34C395.785 183.396 395.711 183.424 395.617 183.424H394.777C394.273 183.424 393.877 183.573 393.587 183.872C393.298 184.161 393.153 184.558 393.153 185.062V189.178C393.153 189.271 393.121 189.351 393.055 189.416C392.99 189.472 392.911 189.5 392.817 189.5H392.131ZM399.648 189.64C399.125 189.64 398.677 189.575 398.304 189.444C397.93 189.313 397.627 189.155 397.394 188.968C397.16 188.781 396.983 188.595 396.862 188.408C396.75 188.221 396.689 188.072 396.68 187.96C396.67 187.857 396.703 187.778 396.778 187.722C396.852 187.666 396.927 187.638 397.002 187.638H397.618C397.674 187.638 397.716 187.647 397.744 187.666C397.781 187.675 397.828 187.713 397.884 187.778C398.005 187.909 398.14 188.039 398.29 188.17C398.439 188.301 398.621 188.408 398.836 188.492C399.06 188.576 399.335 188.618 399.662 188.618C400.138 188.618 400.53 188.529 400.838 188.352C401.146 188.165 401.3 187.895 401.3 187.54C401.3 187.307 401.234 187.12 401.104 186.98C400.982 186.84 400.758 186.714 400.432 186.602C400.114 186.49 399.676 186.373 399.116 186.252C398.556 186.121 398.112 185.963 397.786 185.776C397.459 185.58 397.226 185.351 397.086 185.09C396.946 184.819 396.876 184.516 396.876 184.18C396.876 183.835 396.978 183.503 397.184 183.186C397.389 182.859 397.688 182.593 398.08 182.388C398.481 182.183 398.98 182.08 399.578 182.08C400.063 182.08 400.478 182.141 400.824 182.262C401.169 182.383 401.454 182.537 401.678 182.724C401.902 182.901 402.07 183.079 402.182 183.256C402.294 183.433 402.354 183.583 402.364 183.704C402.373 183.797 402.345 183.877 402.28 183.942C402.214 183.998 402.14 184.026 402.056 184.026H401.468C401.402 184.026 401.346 184.012 401.3 183.984C401.262 183.956 401.225 183.923 401.188 183.886C401.094 183.765 400.982 183.643 400.852 183.522C400.73 183.401 400.567 183.303 400.362 183.228C400.166 183.144 399.904 183.102 399.578 183.102C399.111 183.102 398.761 183.2 398.528 183.396C398.294 183.592 398.178 183.839 398.178 184.138C398.178 184.315 398.229 184.474 398.332 184.614C398.434 184.754 398.63 184.88 398.92 184.992C399.209 185.104 399.638 185.225 400.208 185.356C400.824 185.477 401.309 185.641 401.664 185.846C402.018 186.051 402.27 186.289 402.42 186.56C402.569 186.831 402.644 187.143 402.644 187.498C402.644 187.89 402.527 188.249 402.294 188.576C402.07 188.903 401.734 189.164 401.286 189.36C400.847 189.547 400.301 189.64 399.648 189.64Z" fill="#C1C1C4"/>
<path d="M423.625 179.375L412.375 190.625M423.625 190.625L412.375 179.375" stroke="#C1C1C4" stroke-width="1.25" stroke-linecap="round" stroke-linejoin="round"/>
<rect x="356" y="127" width="130" height="30" rx="5" fill="#2F3239"/>
<path d="M368.914 147.64C368.13 147.64 367.453 147.5 366.884 147.22C366.324 146.94 365.89 146.515 365.582 145.946C365.283 145.367 365.134 144.625 365.134 143.72V138.036C365.134 137.933 365.162 137.854 365.218 137.798C365.274 137.733 365.353 137.7 365.456 137.7H366.17C366.273 137.7 366.352 137.733 366.408 137.798C366.473 137.854 366.506 137.933 366.506 138.036V143.748C366.506 144.663 366.721 145.339 367.15 145.778C367.579 146.217 368.167 146.436 368.914 146.436C369.651 146.436 370.235 146.217 370.664 145.778C371.103 145.339 371.322 144.663 371.322 143.748V138.036C371.322 137.933 371.35 137.854 371.406 137.798C371.471 137.733 371.551 137.7 371.644 137.7H372.372C372.465 137.7 372.54 137.733 372.596 137.798C372.661 137.854 372.694 137.933 372.694 138.036V143.72C372.694 144.625 372.54 145.367 372.232 145.946C371.933 146.515 371.504 146.94 370.944 147.22C370.384 147.5 369.707 147.64 368.914 147.64ZM375.174 147.5C375.081 147.5 375.002 147.472 374.936 147.416C374.88 147.351 374.852 147.271 374.852 147.178V140.542C374.852 140.449 374.88 140.374 374.936 140.318C375.002 140.253 375.081 140.22 375.174 140.22H375.832C375.926 140.22 376 140.253 376.056 140.318C376.122 140.374 376.154 140.449 376.154 140.542V141.158C376.397 140.841 376.7 140.584 377.064 140.388C377.438 140.183 377.914 140.08 378.492 140.08C379.099 140.08 379.612 140.215 380.032 140.486C380.462 140.747 380.784 141.116 380.998 141.592C381.213 142.059 381.32 142.605 381.32 143.23V147.178C381.32 147.271 381.292 147.351 381.236 147.416C381.18 147.472 381.106 147.5 381.012 147.5H380.312C380.219 147.5 380.14 147.472 380.074 147.416C380.018 147.351 379.99 147.271 379.99 147.178V143.3C379.99 142.647 379.832 142.138 379.514 141.774C379.197 141.401 378.73 141.214 378.114 141.214C377.536 141.214 377.069 141.401 376.714 141.774C376.369 142.138 376.196 142.647 376.196 143.3V147.178C376.196 147.271 376.164 147.351 376.098 147.416C376.042 147.472 375.968 147.5 375.874 147.5H375.174ZM383.665 147.5C383.571 147.5 383.492 147.472 383.427 147.416C383.371 147.351 383.343 147.271 383.343 147.178V140.542C383.343 140.449 383.371 140.374 383.427 140.318C383.492 140.253 383.571 140.22 383.665 140.22H384.337C384.43 140.22 384.505 140.253 384.561 140.318C384.617 140.374 384.645 140.449 384.645 140.542V147.178C384.645 147.271 384.617 147.351 384.561 147.416C384.505 147.472 384.43 147.5 384.337 147.5H383.665ZM383.553 138.862C383.459 138.862 383.38 138.834 383.315 138.778C383.259 138.713 383.231 138.633 383.231 138.54V137.784C383.231 137.691 383.259 137.616 383.315 137.56C383.38 137.495 383.459 137.462 383.553 137.462H384.435C384.528 137.462 384.603 137.495 384.659 137.56C384.724 137.616 384.757 137.691 384.757 137.784V138.54C384.757 138.633 384.724 138.713 384.659 138.778C384.603 138.834 384.528 138.862 384.435 138.862H383.553ZM389.575 147.5C389.053 147.5 388.628 147.402 388.301 147.206C387.975 147.001 387.737 146.716 387.587 146.352C387.438 145.979 387.363 145.54 387.363 145.036V141.34H386.271C386.178 141.34 386.099 141.312 386.033 141.256C385.977 141.191 385.949 141.111 385.949 141.018V140.542C385.949 140.449 385.977 140.374 386.033 140.318C386.099 140.253 386.178 140.22 386.271 140.22H387.363V137.882C387.363 137.789 387.391 137.714 387.447 137.658C387.513 137.593 387.592 137.56 387.685 137.56H388.343C388.437 137.56 388.511 137.593 388.567 137.658C388.633 137.714 388.665 137.789 388.665 137.882V140.22H390.401C390.495 140.22 390.569 140.253 390.625 140.318C390.691 140.374 390.723 140.449 390.723 140.542V141.018C390.723 141.111 390.691 141.191 390.625 141.256C390.569 141.312 390.495 141.34 390.401 141.34H388.665V144.938C388.665 145.377 388.74 145.722 388.889 145.974C389.039 146.226 389.305 146.352 389.687 146.352H390.541C390.635 146.352 390.709 146.385 390.765 146.45C390.831 146.506 390.863 146.581 390.863 146.674V147.178C390.863 147.271 390.831 147.351 390.765 147.416C390.709 147.472 390.635 147.5 390.541 147.5H389.575ZM395.1 147.64C394.139 147.64 393.373 147.346 392.804 146.758C392.235 146.161 391.922 145.349 391.866 144.322C391.857 144.201 391.852 144.047 391.852 143.86C391.852 143.664 391.857 143.505 391.866 143.384C391.903 142.721 392.057 142.143 392.328 141.648C392.599 141.144 392.967 140.757 393.434 140.486C393.91 140.215 394.465 140.08 395.1 140.08C395.809 140.08 396.402 140.229 396.878 140.528C397.363 140.827 397.732 141.251 397.984 141.802C398.236 142.353 398.362 142.997 398.362 143.734V143.972C398.362 144.075 398.329 144.154 398.264 144.21C398.208 144.266 398.133 144.294 398.04 144.294H393.196C393.196 144.303 393.196 144.322 393.196 144.35C393.196 144.378 393.196 144.401 393.196 144.42C393.215 144.803 393.299 145.162 393.448 145.498C393.597 145.825 393.812 146.091 394.092 146.296C394.372 146.501 394.708 146.604 395.1 146.604C395.436 146.604 395.716 146.553 395.94 146.45C396.164 146.347 396.346 146.235 396.486 146.114C396.626 145.983 396.719 145.885 396.766 145.82C396.85 145.699 396.915 145.629 396.962 145.61C397.009 145.582 397.083 145.568 397.186 145.568H397.858C397.951 145.568 398.026 145.596 398.082 145.652C398.147 145.699 398.175 145.769 398.166 145.862C398.157 146.002 398.082 146.175 397.942 146.38C397.802 146.576 397.601 146.772 397.34 146.968C397.079 147.164 396.761 147.327 396.388 147.458C396.015 147.579 395.585 147.64 395.1 147.64ZM393.196 143.328H397.032V143.286C397.032 142.866 396.953 142.493 396.794 142.166C396.645 141.839 396.425 141.583 396.136 141.396C395.847 141.2 395.501 141.102 395.1 141.102C394.699 141.102 394.353 141.2 394.064 141.396C393.784 141.583 393.569 141.839 393.42 142.166C393.271 142.493 393.196 142.866 393.196 143.286V143.328ZM402.696 147.64C402.183 147.64 401.739 147.551 401.366 147.374C400.993 147.187 400.685 146.94 400.442 146.632C400.209 146.315 400.031 145.955 399.91 145.554C399.798 145.153 399.733 144.728 399.714 144.28C399.705 144.131 399.7 143.991 399.7 143.86C399.7 143.729 399.705 143.589 399.714 143.44C399.733 143.001 399.798 142.581 399.91 142.18C400.031 141.779 400.209 141.419 400.442 141.102C400.685 140.785 400.993 140.537 401.366 140.36C401.739 140.173 402.183 140.08 402.696 140.08C403.247 140.08 403.704 140.178 404.068 140.374C404.432 140.57 404.731 140.813 404.964 141.102V137.882C404.964 137.789 404.992 137.714 405.048 137.658C405.113 137.593 405.193 137.56 405.286 137.56H405.958C406.051 137.56 406.126 137.593 406.182 137.658C406.247 137.714 406.28 137.789 406.28 137.882V147.178C406.28 147.271 406.247 147.351 406.182 147.416C406.126 147.472 406.051 147.5 405.958 147.5H405.328C405.225 147.5 405.146 147.472 405.09 147.416C405.034 147.351 405.006 147.271 405.006 147.178V146.59C404.773 146.889 404.469 147.141 404.096 147.346C403.723 147.542 403.256 147.64 402.696 147.64ZM402.99 146.506C403.457 146.506 403.83 146.399 404.11 146.184C404.39 145.969 404.6 145.699 404.74 145.372C404.88 145.036 404.955 144.695 404.964 144.35C404.973 144.201 404.978 144.023 404.978 143.818C404.978 143.603 404.973 143.421 404.964 143.272C404.955 142.945 404.875 142.623 404.726 142.306C404.586 141.989 404.371 141.727 404.082 141.522C403.802 141.317 403.438 141.214 402.99 141.214C402.514 141.214 402.136 141.321 401.856 141.536C401.576 141.741 401.375 142.017 401.254 142.362C401.133 142.698 401.063 143.062 401.044 143.454C401.035 143.725 401.035 143.995 401.044 144.266C401.063 144.658 401.133 145.027 401.254 145.372C401.375 145.708 401.576 145.983 401.856 146.198C402.136 146.403 402.514 146.506 402.99 146.506ZM415.126 147.64C414.314 147.64 413.632 147.519 413.082 147.276C412.531 147.024 412.106 146.702 411.808 146.31C411.518 145.909 411.364 145.484 411.346 145.036C411.346 144.961 411.374 144.896 411.43 144.84C411.495 144.775 411.57 144.742 411.654 144.742H412.368C412.48 144.742 412.564 144.77 412.62 144.826C412.676 144.882 412.713 144.947 412.732 145.022C412.778 145.246 412.89 145.47 413.068 145.694C413.254 145.909 413.511 146.091 413.838 146.24C414.174 146.38 414.603 146.45 415.126 146.45C415.928 146.45 416.516 146.31 416.89 146.03C417.272 145.741 417.464 145.358 417.464 144.882C417.464 144.555 417.361 144.294 417.156 144.098C416.96 143.893 416.656 143.711 416.246 143.552C415.835 143.393 415.303 143.221 414.65 143.034C413.968 142.838 413.404 142.623 412.956 142.39C412.508 142.157 412.172 141.867 411.948 141.522C411.733 141.177 411.626 140.738 411.626 140.206C411.626 139.702 411.761 139.254 412.032 138.862C412.302 138.461 412.69 138.143 413.194 137.91C413.707 137.677 414.328 137.56 415.056 137.56C415.634 137.56 416.138 137.639 416.568 137.798C417.006 137.947 417.37 138.153 417.66 138.414C417.949 138.666 418.168 138.941 418.318 139.24C418.467 139.529 418.546 139.814 418.556 140.094C418.556 140.159 418.532 140.225 418.486 140.29C418.439 140.346 418.364 140.374 418.262 140.374H417.52C417.454 140.374 417.384 140.355 417.31 140.318C417.244 140.281 417.193 140.211 417.156 140.108C417.1 139.725 416.885 139.403 416.512 139.142C416.138 138.881 415.653 138.75 415.056 138.75C414.449 138.75 413.954 138.867 413.572 139.1C413.198 139.333 413.012 139.697 413.012 140.192C413.012 140.509 413.1 140.775 413.278 140.99C413.455 141.195 413.735 141.377 414.118 141.536C414.5 141.695 415 141.863 415.616 142.04C416.362 142.245 416.974 142.465 417.45 142.698C417.926 142.922 418.276 143.207 418.5 143.552C418.733 143.888 418.85 144.322 418.85 144.854C418.85 145.442 418.696 145.946 418.388 146.366C418.08 146.777 417.646 147.094 417.086 147.318C416.535 147.533 415.882 147.64 415.126 147.64ZM423.345 147.5C422.822 147.5 422.397 147.402 422.071 147.206C421.744 147.001 421.506 146.716 421.357 146.352C421.207 145.979 421.133 145.54 421.133 145.036V141.34H420.041C419.947 141.34 419.868 141.312 419.803 141.256C419.747 141.191 419.719 141.111 419.719 141.018V140.542C419.719 140.449 419.747 140.374 419.803 140.318C419.868 140.253 419.947 140.22 420.041 140.22H421.133V137.882C421.133 137.789 421.161 137.714 421.217 137.658C421.282 137.593 421.361 137.56 421.455 137.56H422.113C422.206 137.56 422.281 137.593 422.337 137.658C422.402 137.714 422.435 137.789 422.435 137.882V140.22H424.171C424.264 140.22 424.339 140.253 424.395 140.318C424.46 140.374 424.493 140.449 424.493 140.542V141.018C424.493 141.111 424.46 141.191 424.395 141.256C424.339 141.312 424.264 141.34 424.171 141.34H422.435V144.938C422.435 145.377 422.509 145.722 422.659 145.974C422.808 146.226 423.074 146.352 423.457 146.352H424.311C424.404 146.352 424.479 146.385 424.535 146.45C424.6 146.506 424.633 146.581 424.633 146.674V147.178C424.633 147.271 424.6 147.351 424.535 147.416C424.479 147.472 424.404 147.5 424.311 147.5H423.345ZM428.002 147.64C427.535 147.64 427.11 147.547 426.728 147.36C426.345 147.173 426.037 146.921 425.804 146.604C425.57 146.287 425.454 145.927 425.454 145.526C425.454 144.882 425.715 144.369 426.238 143.986C426.76 143.603 427.442 143.351 428.282 143.23L430.368 142.936V142.53C430.368 142.082 430.237 141.732 429.976 141.48C429.724 141.228 429.308 141.102 428.73 141.102C428.31 141.102 427.969 141.186 427.708 141.354C427.456 141.522 427.278 141.737 427.176 141.998C427.12 142.138 427.022 142.208 426.882 142.208H426.252C426.149 142.208 426.07 142.18 426.014 142.124C425.967 142.059 425.944 141.984 425.944 141.9C425.944 141.76 425.995 141.587 426.098 141.382C426.21 141.177 426.378 140.976 426.602 140.78C426.826 140.584 427.11 140.421 427.456 140.29C427.81 140.15 428.24 140.08 428.744 140.08C429.304 140.08 429.775 140.155 430.158 140.304C430.54 140.444 430.839 140.635 431.054 140.878C431.278 141.121 431.436 141.396 431.53 141.704C431.632 142.012 431.684 142.325 431.684 142.642V147.178C431.684 147.271 431.651 147.351 431.586 147.416C431.53 147.472 431.455 147.5 431.362 147.5H430.718C430.615 147.5 430.536 147.472 430.48 147.416C430.424 147.351 430.396 147.271 430.396 147.178V146.576C430.274 146.744 430.111 146.912 429.906 147.08C429.7 147.239 429.444 147.374 429.136 147.486C428.828 147.589 428.45 147.64 428.002 147.64ZM428.296 146.59C428.678 146.59 429.028 146.511 429.346 146.352C429.663 146.184 429.91 145.927 430.088 145.582C430.274 145.237 430.368 144.803 430.368 144.28V143.888L428.744 144.126C428.081 144.219 427.582 144.378 427.246 144.602C426.91 144.817 426.742 145.092 426.742 145.428C426.742 145.689 426.816 145.909 426.966 146.086C427.124 146.254 427.32 146.38 427.554 146.464C427.796 146.548 428.044 146.59 428.296 146.59ZM436.47 147.5C435.947 147.5 435.522 147.402 435.196 147.206C434.869 147.001 434.631 146.716 434.482 146.352C434.332 145.979 434.258 145.54 434.258 145.036V141.34H433.166C433.072 141.34 432.993 141.312 432.928 141.256C432.872 141.191 432.844 141.111 432.844 141.018V140.542C432.844 140.449 432.872 140.374 432.928 140.318C432.993 140.253 433.072 140.22 433.166 140.22H434.258V137.882C434.258 137.789 434.286 137.714 434.342 137.658C434.407 137.593 434.486 137.56 434.58 137.56H435.238C435.331 137.56 435.406 137.593 435.462 137.658C435.527 137.714 435.56 137.789 435.56 137.882V140.22H437.296C437.389 140.22 437.464 140.253 437.52 140.318C437.585 140.374 437.618 140.449 437.618 140.542V141.018C437.618 141.111 437.585 141.191 437.52 141.256C437.464 141.312 437.389 141.34 437.296 141.34H435.56V144.938C435.56 145.377 435.634 145.722 435.784 145.974C435.933 146.226 436.199 146.352 436.582 146.352H437.436C437.529 146.352 437.604 146.385 437.66 146.45C437.725 146.506 437.758 146.581 437.758 146.674V147.178C437.758 147.271 437.725 147.351 437.66 147.416C437.604 147.472 437.529 147.5 437.436 147.5H436.47ZM441.995 147.64C441.033 147.64 440.268 147.346 439.699 146.758C439.129 146.161 438.817 145.349 438.761 144.322C438.751 144.201 438.747 144.047 438.747 143.86C438.747 143.664 438.751 143.505 438.761 143.384C438.798 142.721 438.952 142.143 439.223 141.648C439.493 141.144 439.862 140.757 440.329 140.486C440.805 140.215 441.36 140.08 441.995 140.08C442.704 140.08 443.297 140.229 443.773 140.528C444.258 140.827 444.627 141.251 444.879 141.802C445.131 142.353 445.257 142.997 445.257 143.734V143.972C445.257 144.075 445.224 144.154 445.159 144.21C445.103 144.266 445.028 144.294 444.935 144.294H440.091C440.091 144.303 440.091 144.322 440.091 144.35C440.091 144.378 440.091 144.401 440.091 144.42C440.109 144.803 440.193 145.162 440.343 145.498C440.492 145.825 440.707 146.091 440.987 146.296C441.267 146.501 441.603 146.604 441.995 146.604C442.331 146.604 442.611 146.553 442.835 146.45C443.059 146.347 443.241 146.235 443.381 146.114C443.521 145.983 443.614 145.885 443.661 145.82C443.745 145.699 443.81 145.629 443.857 145.61C443.903 145.582 443.978 145.568 444.081 145.568H444.753C444.846 145.568 444.921 145.596 444.977 145.652C445.042 145.699 445.07 145.769 445.061 145.862C445.051 146.002 444.977 146.175 444.837 146.38C444.697 146.576 444.496 146.772 444.235 146.968C443.973 147.164 443.656 147.327 443.283 147.458C442.909 147.579 442.48 147.64 441.995 147.64ZM440.091 143.328H443.927V143.286C443.927 142.866 443.847 142.493 443.689 142.166C443.539 141.839 443.32 141.583 443.031 141.396C442.741 141.2 442.396 141.102 441.995 141.102C441.593 141.102 441.248 141.2 440.959 141.396C440.679 141.583 440.464 141.839 440.315 142.166C440.165 142.493 440.091 142.866 440.091 143.286V143.328ZM449.451 147.64C448.928 147.64 448.48 147.575 448.107 147.444C447.733 147.313 447.43 147.155 447.197 146.968C446.963 146.781 446.786 146.595 446.665 146.408C446.553 146.221 446.492 146.072 446.483 145.96C446.473 145.857 446.506 145.778 446.581 145.722C446.655 145.666 446.73 145.638 446.805 145.638H447.421C447.477 145.638 447.519 145.647 447.547 145.666C447.584 145.675 447.631 145.713 447.687 145.778C447.808 145.909 447.943 146.039 448.093 146.17C448.242 146.301 448.424 146.408 448.639 146.492C448.863 146.576 449.138 146.618 449.465 146.618C449.941 146.618 450.333 146.529 450.641 146.352C450.949 146.165 451.103 145.895 451.103 145.54C451.103 145.307 451.037 145.12 450.907 144.98C450.785 144.84 450.561 144.714 450.235 144.602C449.917 144.49 449.479 144.373 448.919 144.252C448.359 144.121 447.915 143.963 447.589 143.776C447.262 143.58 447.029 143.351 446.889 143.09C446.749 142.819 446.679 142.516 446.679 142.18C446.679 141.835 446.781 141.503 446.987 141.186C447.192 140.859 447.491 140.593 447.883 140.388C448.284 140.183 448.783 140.08 449.381 140.08C449.866 140.08 450.281 140.141 450.627 140.262C450.972 140.383 451.257 140.537 451.481 140.724C451.705 140.901 451.873 141.079 451.985 141.256C452.097 141.433 452.157 141.583 452.167 141.704C452.176 141.797 452.148 141.877 452.083 141.942C452.017 141.998 451.943 142.026 451.859 142.026H451.271C451.205 142.026 451.149 142.012 451.103 141.984C451.065 141.956 451.028 141.923 450.991 141.886C450.897 141.765 450.785 141.643 450.655 141.522C450.533 141.401 450.37 141.303 450.165 141.228C449.969 141.144 449.707 141.102 449.381 141.102C448.914 141.102 448.564 141.2 448.331 141.396C448.097 141.592 447.981 141.839 447.981 142.138C447.981 142.315 448.032 142.474 448.135 142.614C448.237 142.754 448.433 142.88 448.723 142.992C449.012 143.104 449.441 143.225 450.011 143.356C450.627 143.477 451.112 143.641 451.467 143.846C451.821 144.051 452.073 144.289 452.223 144.56C452.372 144.831 452.447 145.143 452.447 145.498C452.447 145.89 452.33 146.249 452.097 146.576C451.873 146.903 451.537 147.164 451.089 147.36C450.65 147.547 450.104 147.64 449.451 147.64Z" fill="#C1C1C4"/>
<path d="M473.625 137.375L462.375 148.625M473.625 148.625L462.375 137.375" stroke="#C1C1C4" stroke-width="1.25" stroke-linecap="round" stroke-linejoin="round"/>
<rect x="320" y="85" width="90" height="30" rx="5" fill="#2F3239"/>
<path d="M332.914 105.64C332.13 105.64 331.453 105.5 330.884 105.22C330.324 104.94 329.89 104.515 329.582 103.946C329.283 103.367 329.134 102.625 329.134 101.72V96.036C329.134 95.9333 329.162 95.854 329.218 95.798C329.274 95.7327 329.353 95.7 329.456 95.7H330.17C330.273 95.7 330.352 95.7327 330.408 95.798C330.473 95.854 330.506 95.9333 330.506 96.036V101.748C330.506 102.663 330.721 103.339 331.15 103.778C331.579 104.217 332.167 104.436 332.914 104.436C333.651 104.436 334.235 104.217 334.664 103.778C335.103 103.339 335.322 102.663 335.322 101.748V96.036C335.322 95.9333 335.35 95.854 335.406 95.798C335.471 95.7327 335.551 95.7 335.644 95.7H336.372C336.465 95.7 336.54 95.7327 336.596 95.798C336.661 95.854 336.694 95.9333 336.694 96.036V101.72C336.694 102.625 336.54 103.367 336.232 103.946C335.933 104.515 335.504 104.94 334.944 105.22C334.384 105.5 333.707 105.64 332.914 105.64ZM339.188 105.5C339.095 105.5 339.016 105.472 338.95 105.416C338.894 105.351 338.866 105.271 338.866 105.178V95.882C338.866 95.7887 338.894 95.714 338.95 95.658C339.016 95.5927 339.095 95.56 339.188 95.56H339.846C339.94 95.56 340.014 95.5927 340.07 95.658C340.136 95.714 340.168 95.7887 340.168 95.882V100.754L342.926 98.458C343.038 98.3647 343.122 98.304 343.178 98.276C343.244 98.2387 343.346 98.22 343.486 98.22H344.228C344.312 98.22 344.382 98.248 344.438 98.304C344.494 98.36 344.522 98.43 344.522 98.514C344.522 98.5513 344.508 98.5933 344.48 98.64C344.462 98.6867 344.42 98.7333 344.354 98.78L341.12 101.468L344.704 104.954C344.816 105.047 344.872 105.131 344.872 105.206C344.872 105.29 344.844 105.36 344.788 105.416C344.732 105.472 344.662 105.5 344.578 105.5H343.85C343.71 105.5 343.608 105.486 343.542 105.458C343.477 105.421 343.393 105.355 343.29 105.262L340.168 102.28V105.178C340.168 105.271 340.136 105.351 340.07 105.416C340.014 105.472 339.94 105.5 339.846 105.5H339.188ZM346.393 105.5C346.3 105.5 346.22 105.472 346.155 105.416C346.099 105.351 346.071 105.271 346.071 105.178V98.556C346.071 98.4627 346.099 98.3833 346.155 98.318C346.22 98.2527 346.3 98.22 346.393 98.22H347.037C347.13 98.22 347.21 98.2527 347.275 98.318C347.34 98.3833 347.373 98.4627 347.373 98.556V99.172C347.56 98.8547 347.816 98.6167 348.143 98.458C348.47 98.2993 348.862 98.22 349.319 98.22H349.879C349.972 98.22 350.047 98.2527 350.103 98.318C350.159 98.374 350.187 98.4487 350.187 98.542V99.116C350.187 99.2093 350.159 99.284 350.103 99.34C350.047 99.396 349.972 99.424 349.879 99.424H349.039C348.535 99.424 348.138 99.5733 347.849 99.872C347.56 100.161 347.415 100.558 347.415 101.062V105.178C347.415 105.271 347.382 105.351 347.317 105.416C347.252 105.472 347.172 105.5 347.079 105.5H346.393ZM353.31 105.64C352.843 105.64 352.419 105.547 352.036 105.36C351.653 105.173 351.345 104.921 351.112 104.604C350.879 104.287 350.762 103.927 350.762 103.526C350.762 102.882 351.023 102.369 351.546 101.986C352.069 101.603 352.75 101.351 353.59 101.23L355.676 100.936V100.53C355.676 100.082 355.545 99.732 355.284 99.48C355.032 99.228 354.617 99.102 354.038 99.102C353.618 99.102 353.277 99.186 353.016 99.354C352.764 99.522 352.587 99.7367 352.484 99.998C352.428 100.138 352.33 100.208 352.19 100.208H351.56C351.457 100.208 351.378 100.18 351.322 100.124C351.275 100.059 351.252 99.984 351.252 99.9C351.252 99.76 351.303 99.5873 351.406 99.382C351.518 99.1767 351.686 98.976 351.91 98.78C352.134 98.584 352.419 98.4207 352.764 98.29C353.119 98.15 353.548 98.08 354.052 98.08C354.612 98.08 355.083 98.1547 355.466 98.304C355.849 98.444 356.147 98.6353 356.362 98.878C356.586 99.1207 356.745 99.396 356.838 99.704C356.941 100.012 356.992 100.325 356.992 100.642V105.178C356.992 105.271 356.959 105.351 356.894 105.416C356.838 105.472 356.763 105.5 356.67 105.5H356.026C355.923 105.5 355.844 105.472 355.788 105.416C355.732 105.351 355.704 105.271 355.704 105.178V104.576C355.583 104.744 355.419 104.912 355.214 105.08C355.009 105.239 354.752 105.374 354.444 105.486C354.136 105.589 353.758 105.64 353.31 105.64ZM353.604 104.59C353.987 104.59 354.337 104.511 354.654 104.352C354.971 104.184 355.219 103.927 355.396 103.582C355.583 103.237 355.676 102.803 355.676 102.28V101.888L354.052 102.126C353.389 102.219 352.89 102.378 352.554 102.602C352.218 102.817 352.05 103.092 352.05 103.428C352.05 103.689 352.125 103.909 352.274 104.086C352.433 104.254 352.629 104.38 352.862 104.464C353.105 104.548 353.352 104.59 353.604 104.59ZM359.327 105.5C359.233 105.5 359.154 105.472 359.089 105.416C359.033 105.351 359.005 105.271 359.005 105.178V98.542C359.005 98.4487 359.033 98.374 359.089 98.318C359.154 98.2527 359.233 98.22 359.327 98.22H359.999C360.092 98.22 360.167 98.2527 360.223 98.318C360.279 98.374 360.307 98.4487 360.307 98.542V105.178C360.307 105.271 360.279 105.351 360.223 105.416C360.167 105.472 360.092 105.5 359.999 105.5H359.327ZM359.215 96.862C359.121 96.862 359.042 96.834 358.977 96.778C358.921 96.7127 358.893 96.6333 358.893 96.54V95.784C358.893 95.6907 358.921 95.616 358.977 95.56C359.042 95.4947 359.121 95.462 359.215 95.462H360.097C360.19 95.462 360.265 95.4947 360.321 95.56C360.386 95.616 360.419 95.6907 360.419 95.784V96.54C360.419 96.6333 360.386 96.7127 360.321 96.778C360.265 96.834 360.19 96.862 360.097 96.862H359.215ZM362.854 105.5C362.761 105.5 362.681 105.472 362.616 105.416C362.56 105.351 362.532 105.271 362.532 105.178V98.542C362.532 98.4487 362.56 98.374 362.616 98.318C362.681 98.2527 362.761 98.22 362.854 98.22H363.512C363.605 98.22 363.68 98.2527 363.736 98.318C363.801 98.374 363.834 98.4487 363.834 98.542V99.158C364.077 98.8407 364.38 98.584 364.744 98.388C365.117 98.1827 365.593 98.08 366.172 98.08C366.779 98.08 367.292 98.2153 367.712 98.486C368.141 98.7473 368.463 99.116 368.678 99.592C368.893 100.059 369 100.605 369 101.23V105.178C369 105.271 368.972 105.351 368.916 105.416C368.86 105.472 368.785 105.5 368.692 105.5H367.992C367.899 105.5 367.819 105.472 367.754 105.416C367.698 105.351 367.67 105.271 367.67 105.178V101.3C367.67 100.647 367.511 100.138 367.194 99.774C366.877 99.4007 366.41 99.214 365.794 99.214C365.215 99.214 364.749 99.4007 364.394 99.774C364.049 100.138 363.876 100.647 363.876 101.3V105.178C363.876 105.271 363.843 105.351 363.778 105.416C363.722 105.472 363.647 105.5 363.554 105.5H362.854ZM373.92 105.64C372.959 105.64 372.194 105.346 371.624 104.758C371.055 104.161 370.742 103.349 370.686 102.322C370.677 102.201 370.672 102.047 370.672 101.86C370.672 101.664 370.677 101.505 370.686 101.384C370.724 100.721 370.878 100.143 371.148 99.648C371.419 99.144 371.788 98.7567 372.254 98.486C372.73 98.2153 373.286 98.08 373.92 98.08C374.63 98.08 375.222 98.2293 375.698 98.528C376.184 98.8267 376.552 99.2513 376.804 99.802C377.056 100.353 377.182 100.997 377.182 101.734V101.972C377.182 102.075 377.15 102.154 377.084 102.21C377.028 102.266 376.954 102.294 376.86 102.294H372.016C372.016 102.303 372.016 102.322 372.016 102.35C372.016 102.378 372.016 102.401 372.016 102.42C372.035 102.803 372.119 103.162 372.268 103.498C372.418 103.825 372.632 104.091 372.912 104.296C373.192 104.501 373.528 104.604 373.92 104.604C374.256 104.604 374.536 104.553 374.76 104.45C374.984 104.347 375.166 104.235 375.306 104.114C375.446 103.983 375.54 103.885 375.586 103.82C375.67 103.699 375.736 103.629 375.782 103.61C375.829 103.582 375.904 103.568 376.006 103.568H376.678C376.772 103.568 376.846 103.596 376.902 103.652C376.968 103.699 376.996 103.769 376.986 103.862C376.977 104.002 376.902 104.175 376.762 104.38C376.622 104.576 376.422 104.772 376.16 104.968C375.899 105.164 375.582 105.327 375.208 105.458C374.835 105.579 374.406 105.64 373.92 105.64ZM372.016 101.328H375.852V101.286C375.852 100.866 375.773 100.493 375.614 100.166C375.465 99.8393 375.246 99.5827 374.956 99.396C374.667 99.2 374.322 99.102 373.92 99.102C373.519 99.102 373.174 99.2 372.884 99.396C372.604 99.5827 372.39 99.8393 372.24 100.166C372.091 100.493 372.016 100.866 372.016 101.286V101.328Z" fill="#C1C1C4"/>
<path d="M397.625 95.375L386.375 106.625M397.625 106.625L386.375 95.375" stroke="#C1C1C4" stroke-width="1.25" stroke-linecap="round" stroke-linejoin="round"/>
</svg>
